<?xml version="1.0" encoding="UTF-8"?>
<svg id="Calque_2" data-name="Calque 2" xmlns="http://www.w3.org/2000/svg" viewBox="0 0 924.09 539.41">
  <defs>
    <style>
      .cls-1 {
        fill: #f5f8e8;
      }

      .cls-2 {
        fill: #13a12b;
      }

      .cls-3 {
        fill: #0e681b;
      }

      .cls-4 {
        fill: #094312;
      }

      .cls-5 {
        fill: #fff;
      }
    </style>
  </defs>
  <path class="cls-4" d="M197.64,95.38l-18.98,32.97-63.94,1c-.09-.53-1.59-2.46-1-2.99.21-.19,3.02.04,3.99,0,14-.69,32.95,1.92,45.96,0l1-1c2.08-.54,3.96-.53,5.68-2.31l16.28-27.18c1.85-1.12,8.27-.41,11-.49Z"/>
  <path class="cls-3" d="M831.02,210.27c3.32.02,6.67,0,9.99,0,.67,0,1.33,0,2,0,1.33-.02,2.67.03,4,0,3.63-.09,7.37.24,10.99,0,.66-.04,1.34.06,2,0,4.3.52,2.9,1.71-1,2-8.84.66-18.94-.07-27.97,0-.67,0-1.33,0-2,0-2.76.02-5.44.97-6.99,1l1-3c2.6.2,5.37-.02,7.99,0Z"/>
  <path class="cls-5" d="M293.54,28.45h6.99c-2.81,19.33-6.41,38.56-8.99,57.94-3.95-1.24-3.91,3.78-4,6.99l-2,7.98c7.23-.74,3.93.84,4.99,3.01-1.63,12.73-5.89,27.22-5.99,39.96,0,1,0,2,0,3-.33,0-.67,0-1,0-4.87.06-10.9-.56-15.52-.04-1.5.17-3.08.21-3.46,2.02h18.98c0,.66.08,1.38,0,2.01-1.89,13.93-7.83,38.07-6.99,50.95-.91.28-1.01,1.15-1,2,0,.65-.09,1.39,0,2l-1,4.99c2.99.04,6-.03,8.99,0l1.99,1.01v.98c-2.2,1-8.87-1.49-10.98,1.01l-.92.55-4.08,30.42c2.64,3.08,7.24-1.14,6,3.99-2.15.14-6.06-.87-6.85,1.65l-3.14,27.33c-.44-.04-.86,0-.99.5-.78,4.18-.4,9.56-1.01,13.48-.38,2.44-2.59,5.93-2,8.99-3.77.24-8.6,1.89-12.98,1-3.61,2.75,8.63,1.87,9.56,1.95,1.28.12,2.28,1.03,2.42,1.04l-3,27.98c5.98.03,12.01-.06,17.99,0,5.65.05,11.34-.04,16.99,0l-3,23.98c-1.99.07-4-.09-5.99,0l-1.01,18.97c-4.06.08-14.47-1.9-14.98,2.99,6.17-.41,11.79,1.04,17.98,1-.15,3.47-.22,9.26-2,11.99l-31.38-.03c-1.15-.07-.42,1.36-.59,2.03-1.13,4.35-1.69,10.42-2,14.99-3.58-1.41-9.95-2.78-10.01,2.49-.03,2.38.64,1.35,2.48,1.51,2.48.21,5.05-.14,7.53,0v3c-.44-.04-.86,0-.99.5l-3.01,26.47c-.58.03-2,.9-3.44,1.01-3.82.28-7.73-.21-11.55,0v2.99c4.65.05,9.34-.04,13.99,0-1.29,5.2-1.21,10.76-2,15.98-2.3,15.29-5.38,30.55-6.99,45.96h-53.95c-.23-.68-.11-3.97,0-5,.07-.69.91-1.8,1-4,.03-.66-.02-1.33,0-2,.86,0,2.68-15.05,3-16.98,4.99-.7,11.78,1.67,15.97-1.51.48-2.42-1.94-1.42-3.48-1.48-3.82-.16-7.68.11-11.5,0,1.14-7.21,1.86-14.69,3-21.98.74-4.77,2.4-10.15,3-13.99,4.14-.36,14.89.92,18.01-1.47,1.99-1.53.04-6.03,1.96-8.03l-18.96-.48c.23-1.55-.2-3.41,0-5,.59-4.62,3.15-9.71,2-14.99.48.07.79-.04.99-.51.18-.43-.13-1.04,0-1.48.24-.76.95-2.71,1-3,3.94-.39,15.99.87,18.77-1.2,1.6-1.19,1.78-8.67,2.21-10.79.63-3.18,3.19-6.84,2-10.99-6.65-.02-13.34.04-19.99,0-1.33,0-2.66,0-4,0-.33,0-.67,0-1,0-31.14-.1-62.3.11-93.45-.05-4.52-.42-4.18,5.04-6.45,7.04h-6.99c-4.23-.63-5.06-.77-8.99,0-2.77-.52-17.04.71-17.99,0-.15-.11.06-1.54,0-2,1.57-3.25,1.64-8.19,2-11.99.33,0,.67,0,1,0s.67,0,1,0c.67.01,1.33,0,2,0,5.31.08,10.67-.05,15.98,0,2.66.03,5.33-.01,7.99,0,26.6.14,53.43.64,79.92-1l-.99-1.99c-1.04-1.65-3.79-1-5.48-1.02-24.47-.26-48.99.02-73.44.02h-25.97c-.19-.51,0-2.16,0-3,0-2,2.41-17.3,3.1-17.88s3.63.19,4.89-.11c1.82-.43,2.8-6.97,2.99-8.99-2.98-.07-6,.07-8.99,0,.27-9.92,7.11-15.17,9.99-23.98,7.32-10.24,13.25-20.89,18.98-31.97,1.27-2.45,3.5-4.85,5-7.99,6.25,1.59,10.32-8.38,13.16-13.31.85-1.49,6.53-11.02,5.82-11.66l-6.98-.5c8.32-13.77,16.29-27.74,24.17-41.77,2.83-5.04,5.32-10.41,7.87-15.01,10.58-19.15,21.94-35.96,33.09-54.92,2.65-4.5,5.63-9.02,8.79-13.19-2.73-1.49-6.12.37-8.99.5v-1l18.98-32.97c3.31-.09,6.69.19,9.99,0,7.42-.43,4.57-3.57,11.99-4,5.62-.32,11.36.24,16.99,0v-2.99c-5.98-.03-12,.02-17.99,0-5.32-.02-10.67.03-15.98-.01,5.12-7.04,9.44-14.56,13.99-21.97,1.12-1.82,4.82-3.66,3.99-6.99h-4.99c5.49-8.58,11.87-20.26,17.98-27.98.63-.79.92-2.01,1.98-2.48,19.17-.94,38.68-.51,57.96-.51ZM219.62,162.32c-1.7.85-2.45,2.58-3.41,4.09-7.07,11.14-15.24,24.39-21.57,35.87-1.95.03-4.17-.41-6,.49-3.58,1.77-14.41,25.21-18.4,29.59-.54.9-.48,1.89-.58,2.88l-5.99,7.98c1.38.53,10.09-1.34,8.98,1.49l-21.97,35.48c-.67.02-1.33-.02-2,0-3.55.09-9.66-1.02-12.04,1.44-1.8,1.86-10.27,16.58-10.84,19.15-.35,1.56-.17,1.57,1.35,1.35,1.85-.26,5.05-.61,6.55-.96h3l-24.98,39.96h45.96c.29,0,.16-3.98,2.66-4.83,2.84-.97,8.09.33,11.32-.16,1,.04,2-.02,3,0s2,0,3,0c2.65.02,5.34.08,7.99,0,3.61-.61,18.65,1.27,19.98-1l5.99-42.96c2-.17,10.62.39,10.99,0,.14-.14.14-3.84,0-3.99-.34-.36-8.36.03-9.99,0l5.88-40.38c6.94-2.02,9.41,2.8,10.03-6.23.43-6.34-4.25-4.01-8.91-4.35,1.9-9.31,2.64-18.86,4.26-28.23.31-1.79,1.61-3.14,1.74-3.73,1.91-.3,13.83.63,13.99-.5.1-.74.12-3.36,0-3.49-.48-.51-11.83.36-13.99,0-.06-.35-1.07-1.23-1-2,.45.04.86,0,.99-.5,1.46-12.84,3.17-25.68,5-38.46.93-6.52,3.17-13.23,2.5-19.98-4.23,5.63-12.07,15.33-13.49,21.97Z"/>
  <path class="cls-5" d="M839.01,29.45c-1.38,7.26-7.45,20.1-7.53,26.89-.12,10.79-1.58,19.86-3.46,31.05-.16.93-.72,2.34-1,4-.34,2-.73,3.99-1,5.99-9.27.45-18.7-.34-27.98,0v2.99c8.98,0,18,0,26.98,0-1.16,6.96-1.6,16.29-3.63,22.88-1.3,4.21-3.67,6.13-4.25,12.71-.39,4.41,2.65,1.31,2.94,2.89.38,2.06-.8,5.18-1.04,7.48-3.65.07-7.34-.06-10.99,0v2.99c3.32.03,6.67-.02,10,0l-9.01,60.43c.08,1.93,8.92-.36,10.01-.48.65-.07,1.34.07,2,0,.27.97,1.15.94,2,1l-1,3c-.71.01-2.97-.97-5-1-1.73-.02-7.35-.54-8.11.58-3.98,17.56-5.19,35.63-7.88,53.37-.06.39-.77,1.52-1,3-1.81,11.95-3.2,24.02-5,35.96-16.97.05-33.98-.07-50.95,0l1-7.99c.67-.01,1.33,0,2,0,6.98-.07,14,.05,20.98,0,2.07-2.05.62-6.17,1-9-2.32-.05-4.67.07-7,0-5.31-.15-10.68.11-15.99,0,.1-1.3-.16-2.72,0-4,.01-.09.74.2.96-1.5,1.67-13.16,2.85-26.39,5.04-39.46.12-.04.44-1.42,1.67-1.79,3.26-.98,8.13,1.05,5.76-5.22h-6.43c1.57-9.44,5.15-27.16,5-35.95.15-1.26-.22-2.82,0-4,.03-.16.72-1.49,1-3,.06-.34-.1-.94,0-1,.37-.2,2.17.05,3,0,.66-.04,1.33.01,2,0,2.83-.06,15.83.49,16.84-.14.7-.44,2.06-6.18.15-5.85h-20.98c.12-1.63-.18-3.38,0-5,.44-3.86,1.42-8.12,2-11.99s4.2-20.59,3.82-22.38c-.23-1.09-2.01-2.15-2.8-1.59-1.3.92-11.2,21.67-13.01,24.97-.19.34-.79.62-1,1-1.79.33-5.57-.62-6.84.16-.7.43-5.72,12.03-8.08,13.41l1.93,3.41c-3.58,2.59-25.73,39.81-29.15,46.27-.97,1.84-1.98,3.47-1.82,5.68-.33.04-.68-.05-1,0-1.4.22-3.59-.51-4.78.21-1.34.8-4.97,9.79-7.19,11.3l5.98,1.48-28.97,47.95c-.33.01-.67-.02-1,0-2.26.14-4.63-.69-6.51.99-.54.48-7.25,11.82-7.46,12.52-.86,2.79,3.22.61,3.98,1.97-.92,2.47-12.21,18.38-10.98,19.48,14.3,0,28.65.02,42.95,0,.33,0,.67,0,1,0v1l.61,2.02,47.4-.46c2.27-1.6,3.62-26.96,4.94-31.53l49.95,1c-1.01,6.67-1.9,13.32-3,19.98-.38,2.32-1.03,4.62-1,6.99,9.64.11,19.33-.14,28.97,0,7.65.11,15.72-.81,22.98,1-.96,2.09-.57,11.57-.99,11.99-.58.58-14.31-.09-15.99,1.99-1.75,1.78-2.53,16.3-3,19.98-8.09.77-10.83-2.06-11.99,8.99h14.98c.5,1.45-1.78,5.82-1,8-1.26.13-2.62-.3-3.55.97-.67.91-.32,2.05-.45,3.03-.16,1.18.3,3.16,0,4l-36.35-.06c-1.2.33-2.38,10.1-2.61,12.05-.08.65.05,1.34,0,2h-1c-1.82.28-10.62-.39-10.99,0-.12.13-.11,2.74,0,3.49.13.94,9.23.47,10.99.5-1.31,12.69-4.14,25.35-5.99,37.96-1.73.3-10.79-.64-11,.5-.34,1.92-.59,2.39,1.47,2.5,3.16.16,6.37-.13,9.52,0-.05.33.05.67,0,1s-.78,1.47-1,3c-.18,1.26.14,2.71,0,4-.48.11-.93.53-1,1-.2,1.36-.08,3.54,0,5l-3,17.98c-6.32.04-12.67-.04-18.99,0v2.99c5.98.09,12.01-.11,17.99,0-.26,5.26-.89,10.86-2,15.98-.31,1.44-.22,3.01-.88,4.4-17.05,1.37-34.78.21-52.07.6.12-1.63-.18-3.41,0-5,1.21-10.19,4.81-20.61,5-30.97,2.09-2.74.86-11.78,2.43-14.05,1.8-2.6,7.31,2.13,5.56-5.94-1.33,0-2.67-.03-4,0-.02-1.92.09-5.42,1-6.99,9.33-.39,18.57-1.18,27.84-2.13.69-2.73,4.78-11.65,2.19-13.41-4.94.34-14.18-2.52-18.03-.44l-8.99-1,7-45.95c2.28-.26,12.54.47,12.99,0,.14-.14.14-3.84,0-3.99-.79-.83-19.97-.08-22.98,0-26.27-.51-52.67.69-78.92,0,.42-1.53-1.38-3.81,1.47-4,1.89-.13,10.16.38,10.53,0,.24-.26-.17-3.02,0-3.99-1.63.1-3.4-.19-5,0l-57.94-1c-.34-10.19,2.64-20.43,5-29.97,2.83,1.14,9.67,1.72,12.28,1.02.91-.25.97-1.85,1.78-2.44.86-.63,7.12-2.02.44-2.57-4.72-.39-9.75.28-14.5,0,5.48-14.41,22.23-33.77,29.86-48.66.94-1.84.13-3.39.86-4.95.58-1.24,4.99-8.85,5.45-9.12,2.37-1.39,13.21.97,15.58-.42.89-.52,7.6-12.51,8.19-14.78h9.99c1.28.17,2.7-.11,3.99,0v-6c-3.31-.05-6.67.08-9.99,0-7.1-.16-8.38-.29-14.99-2,1.79-.75,1.43-3.07,2-4,.18-.3,1.31-.73,1.83-1.63,3.53-6.01,11.07-21.75,15.09-25.9,3.2-3.3,10.24-.13,12.84-1.65,1.11-.65,11.85-18.93,13.6-21.85.76-1.27,5.31-8.24,4.57-8.9-3.65,0-7.33-.03-10.98,0-.33,0-.67,0-1,0,10.18-19.01,21.63-37.32,32.52-55.92.8-1.37.95-3.18,1.44-4.02,2.86-4.88,6.09-9.99,8.99-14.99,10.19-17.52,21.4-34.53,30.96-52.46l-4.99-.49c5.88-9.84,11.65-19.81,16.98-29.97h67.93ZM708.14,345.14h-45.96c-.25,2-.2,1.64,1.24,2.26,3.42,1.46,34.63,1.26,40.27.79,2.26-.19,4.66.13,4.44-3.05Z"/>
  <path class="cls-5" d="M546.3,200.28c2.99-2.56,18.18-.16,22.98-1-.13,6.04-1.44,12-2,17.99-.12,1.29-.9,2.71-1,4-.05.66.04,1.34,0,2l-3,20.98h-14.99c-.46,2.87.6,1.66,2.31,2.13,4.26,1.18,8.31.91,12.67.86-.55,4.57-1.35,9.38-2,13.99-3.41,24.4-7.58,48.74-10.14,73.28-.56,2.83-6.36,1.13-6.85,1.64-.75.76-1.35,18.43-2.04,21.32.39,1.6,5.49,1.74,7.04,1.67-2.56,9.77-2.58,20.03-4,29.96-2.47.08-6.27-.49-8.32.01-.77.19-.63,1.98-1.29,2.05-1.26.15-3.9-1.49-4.37-1.07-.27.25-1.81,7.3,0,7h11.99s-2,20.98-2,20.98c-.52,0-2.02.98-3.45,1-5.84.06-11.7-.04-17.53,0v2.99c6.65.04,13.34-.03,19.99,0l-8.89,32.37c-.67,1.14-2.05.53-3.1.6-3.67.23-11.79-.81-14.38-.07-.92.26-.79,3.02-1.61,4.05,1.62-.12,3.4.2,5,.01l12,.51c-3.1,6.78-6.37,14.07-11.5,19.47h-26.47v1h25.97c.2,1.49.13,1.86-.72,3.02-9.39,12.77-25.32,23.96-40.24,28.94-17.67,5.9-36.38,5.97-54.95,5,.6-3.16-1.58-1.63-3.35-2.09-11.15-2.9-19.56-9.23-28.62-11.89v-1c1.62.26,13.27.24,13.85-.14.64-.41,1.86-6.63,2.16-6.86.22-.17,3.99,1,5.43,1.05,5.87.22,18.89.88,24.02-.06,1.71-.31,2.81-1.07,2.5-2.99-19.63-.03-39.31.03-58.94,0-.33,0-.67,0-1,0-1.4-2.69-7.63-7.25-7.99-9.99h13.99s0-5,0-5c-2.98-.11-6.02.16-9,0-.66-.03-1.34.04-2,0-2.63-.16-4.9.76-7.06-1.44-1.09-1.11-6.11-13.2-6.93-15.55-.42-1.21-.77-2.73-1-4-.06-.32.04-.67,0-1,2,0,4,0,5.99,0h7s0-10,0-10h-14.99c-.84-10.42,0-22.57,1-32.96,4.46.63,10.25-.35,14.88-.11.63-2.27.93-4.53,1.1-6.89.05-.65,0-1.34,0-2,0-.33.02-.67,0-1,1.99-.85.53-5.52.99-6,.38-.4,9.21.3,11,.01-.03-1.32.07-2.68,0-4-.04-.66.06-1.34,0-2-8.18.95-15.91-2.19-23.98-1-.94-.9,2.15-21.98,2-25.98l4-23.98v-1.99c-3.65.05-7.34-.09-10.99,0,.33-2.65.65-5.34,1-7.99.12-.94.97-1.74,1-2,3.2-.5,8.56.82,11.34-.15,1.5-.53,1.54-2.53,2.7-3.29,1.84-1.2,5.68.06,4.95-4.04-.13-.94-16.84-.47-18.99-.5.99-7.28,2.92-14.51,3.07-21.93.9-.35,2.17.16,2.92-.04,2.5-.32,6.27,1,7.99-1,2.99-.09,6,.06,8.99,0,.21.04.87.87,2.39,1.06,9.8,1.18,21.8-1.11,31.9-.23l1.67-2.82-11.98-.02.99-6.98c-.19-.27-1.39.76-1.99,1-2.95-.53-16.24,1.34-16.72-1.45-.1-.59,1.04-7.65,1.67-8.1,2.03-1.45,8.05.66,9.17-1.01,2.49-3.7.99-14.42,2.88-18.41,3.2-.07,16.33.59,17.77-.22,2.12-1.2,3.2-10.96,3.21-13.76,2.93.26,6.04-.19,9,0-.13,1.96.19,4.06,0,6-.02.18-.81.77-.91,1.6-1.34,11.13-2.72,22.25-4.09,33.36h7c2.29,7.11-6.73,2.65-8,3.99-.41.44-.68,10.11-1,11.99s-1.15,3.88-1.05,5.95h-14.39c-1.21.32-.31,2.16-.55,3.05-.76,2.74-1.59,4.73-.99,8-2.57.47-17.37-.65-17.99,0-.1.11-.12,2.75,0,2.99,1.04,1.66,3.79,1,5.48,1.02,8.82.11,17.67-.12,26.48-.01-1.01,3.25-.6,6.71-.99,9.98-1.38,11.35-3.52,23.36-5,34.97-12.63-2.34-10.67,5.32-10.98,14.99h-12.99c-1.62,1.23.02,1.81,1.48,2,6.84.87,13.71-1.03,20.5-1-1.03,8.29-2.62,16.61-3,24.98-.1,2.32.07,4.67,0,6.99-9.64-.2-13.48-5.17-14.99,8.99h14.99c.68,10.99,3.66,30.45,14.98,35.47,7.35,3.26,30.28,3.4,37.99,1.01,12.57-3.91,21.62-23.38,23.96-35.48.33,0,.67,0,1,0,2.97.06,10.11.6,12.32.04.54-.13,1.65-2.39,1.64-2.54-.06-2.5-10.78-1.2-12.96-1.5l3.99-25.97h14.99l.91-.58c.43-1.33-.12-3.1.09-4.42.24-1.51.86-3,1-4,2.07-.39,10.03.62,10.88-.11.55-.47,1.54-8.43,1.1-8.89-.96.1-2.06-.15-2.99,0h-8c0-3.65,0-7.33,0-10.99l1-11.99h-13.99c-1.05-5.36,2.65-26.18,4-32.96.17-.88-.14-2.04,0-3h15.99c.33.03.67-.02,1,0,7.32.56,12.99,1.61,10.08-7.51l-22.07-.48c-1.01-.2-3.69.27-3.99,0-.37-.34,2.07-7.92,1-9.98.67-1.9.64-2.13,1-4,.63-3.26,2.2-22.13,3.01-22.97,1.6-1.67,14.17,4.08,11.97-6-3.4,1.65-7.3.95-10.98,1-.32-5.88,2.01-12.79,2.07-18.47.04-3.89-1.77-8.54-1.13-11.94.25-1.3,4.04.4,4.91-2.19l2.14-24.34c3.82,0,12.42.75,15.36.05,1.23-.3.41-1.69.62-2.04.71-1.2,3.13-5.08,3.99-5.5,2.78-1.37,8.04.7,9-1.49.2-.46-.19-1.48,0-2l1-2Z"/>
  <path class="cls-5" d="M518.32,25.45c7.93,4.3,15.84,6.84,23.51,11.96,4.91,3.28,11.56,8.68,15.46,13.02.71.79,1.34,2.06,2,3-7.18,1.2-19.9-1.61-26.29-.04-.99.24-2.06,3.68-1.68,4.03,9.97.14,20-.17,29.97,0,.67.01,1.33-.02,2,0l3,5.99h-75.93v2h45.96c.2,0-.2,4,0,4h33.97c4.67,13.02,9.18,26.43,10.03,40.42.18,3.01.39,19.47-1.17,20.39-2.31,1.36-5.63-2.44-5.86,5.12,3.96-.18,8.04.27,11.98,0-1.26,2.58-.64,5.49-1,7.99-.19,1.33-.73,3.03-1,5-.04.33.04.67,0,1-1.45.28-6.41-.45-6.95.05-.79.74-1.83,19.7-3.15,20.82-2.11,1.78-14.54-3.01-14.88,3.1h14.99l-2.99,23.98c-13.51.77-28.14-1.06-41.51,0-3.07.24-2.57-.49-2.45,3-1.7.14-4.23.83-6.99,1l1-10.98h-7.99c.05-.72-.16-2.19,0-4,2.69-.08,11.31.78,12.53-.96,2.27-11.51,4.8-22.93,6.4-34.58.27-1.99,0-1.24-1.43-1.43-4.16-.54-9.22.39-13.51,0,.21-1.83.92-3.31,1-4,13.43.55,8.99-5.04,10.1-14.38.14-1.17,1.65-8.22,1.99-8.5,1.72-1.47,7.54,2.84,5.9-4.09-4.16.15-8.38-.23-12.55-.01-1.49.08-2.83.97-3.44,1.01-.33.02-.67-.02-1,0,.25-9.49.79-19.95-6-27.47-6.55-7.25-12.56-5.01-20.97-5.5-1.98-.11-4.01.02-5.99,0-.13,0-1.16-1.03-2.43-1.05-17.82-.31-24.42,8.76-31.55,23.51-.99,2.04-2.71,9.08-3.08,9.4-1.28,1.11-7.35-1.31-9.89,1.1-1.55,1.47-1.78,4.91-1.99,6.99,2.65.05,5.33-.05,7.99,0-.68,3.09-2.2,22.14-3,22.97-.85.88-7.29-1.99-7.98,2.51,1.51.97,4.15.45,5.99.49,2.66.06,5.34-.05,8,0,1.39,1.37-2.02,14.29-2,16.99,1.83,9.75-5.85,5.78-7.11,7.57-.66.94-3.61,19.67-2.89,20.41,3.14.16,6.37-.23,9.51,0,1.45.11,2.92-.76,2.46,1.48-.78,3.79-3.96,2.39-6.97,2.52-4.62.2-19.01-2.28-16.48,4,5.15.1,10.34-.16,15.48,0,2.32.07,4.67-.06,7,0,.8,1.7-.91,3.32-1,3.99-2.39.33-8.2-.94-9.53.96-.45.64-2.51,13.53-2.46,15.03l-1.64,4.86-41.31.14c-1.62,1.23.02,1.81,1.48,1.99,3.27.42,7.15-.31,10.51,0,.25.25-.65,6.22-1,6.99h-27.98c.4-8.04,2.09-16.02,3-23.98.15-1.3-.15-2.69,0-4,.48-4.26,1.26-8.74,1.99-12.98-2.65-.05-5.33.04-7.99,0,1.4-8.26,1.73-16.75,3-24.98h30.98s0-3,0-3h-21.98l4-35.96c-.9-.89-7.86,1.98-6.99-2,1.13-7.81,3.33-24.44,6.99-30.97,2.74-.04,18.15.5,18.87-.12.37-.32,1.04-4.78,1.11-5.87-1.05-.99-14.58,1.48-16.98-1,.57-1.51,2.57-7.77,3.67-8.03,4.57-.74,20.69,1.54,23.31-.96,1.39-1.33,1.61-4.14,1.99-5.99l-21.97-.02c6.82-12.71,16.16-24.94,27.5-33.93,8.75-6.94,12.1-9.63,23.45-10.02,9.33-.32,18.68.11,27.98-1v-2.99s-26.98,0-26.98,0c5.76-2.73,13.87-6.67,19.98-7.99,14.27-3.09,35.55-.83,49.95,2Z"/>
  <path class="cls-4" d="M658.19,259.22c-.59,2.26-7.31,14.26-8.19,14.78-2.37,1.39-13.21-.97-15.58.42-.46.27-4.88,7.88-5.45,9.12-.73,1.56.09,3.11-.86,4.95-7.63,14.89-24.38,34.25-29.86,48.66-1.01,2.65.18,3.26,0,4-2.35,9.54-5.34,19.78-5,29.97v1c-3.46,0-8.36.48-11.52,0-1.55-.23-1.53.6-1.51-1.52.04-3.86,3.13-26.77,5.32-28.25.81-.55,2.54-.05,2.71-.22,1.28-1.25-2.22-5.77-5-4-1.05-.9,7.98-17,9.33-19.17.88-1.42,2.11-1.74,2.64-2.54,4.87-7.41,3.36-11.8,15.32-10.44,2.41-2.4,13.03-19.3,12.74-21.2-.09-.61-2.03-.56-2.13-1.17,3.47-8.17,8.68-16,13.04-23.91,7.93-.9,16.03-.48,23.99-.48Z"/>
  <path class="cls-2" d="M567.28,261.22c.81,1.22,1.06,2.55,1,4,0,.14-.9,1.05-1,2v1c-2.53,21.58-4.38,43.96-8.11,65.34-.93,5.33-3.09,4.36-4.23,7.73-.6,1.76-2.28,13.21-1.64,13.85,2.5-.02,14.98-.22,15.98,1.02.23.28-.13,2.15,0,2.97-2.57.42-10.26-1-11.56.94-.71,1.05-2.74,21.23-3.43,25.04-.11.61.07,1.35,0,2-.08.07.38,1.75-.64,2.02-1.89.49-5.95-.09-8.35-.02,1.41-9.93,1.44-20.19,4-29.96-1.55.07-6.65-.07-7.04-1.67.69-2.89,1.28-20.56,2.04-21.32.5-.5,6.29,1.19,6.85-1.64,2.56-24.54,6.72-48.88,10.14-73.28h5.99Z"/>
  <path class="cls-2" d="M409.43,417.07c2.67.06,6.31-1.02,6.99-1,2.12.06,3.61.98,4,1,.99,1.32.76,6.73,1.01,6.98.56.57,6.43.58,6.98-1.99,1.13,5.11-4.3,2.41-7,2.99,1.02,18.97,6.58,43.57,31.18,36.68,11.22-3.14,16.45-12.04,20.95-22l4.81-12.67c.43.28,6.44-.04,7.99,0-2.34,12.1-11.39,31.57-23.96,35.48-7.7,2.4-30.64,2.25-37.99-1.01-11.32-5.02-14.3-24.49-14.98-35.47h-14.99c1.51-14.16,5.34-9.19,14.99-8.99Z"/>
  <path class="cls-2" d="M563.28,57.42c8.79.21,15.55-2.55,15.99,8.99-7.62-1.7-1.33,5.77.02,9.47,6.36,17.55,8.03,33.78,6.97,52.47l.5.98.5-.98c1.28.17,2.72-.17,4,0l.5.98.5-.98c1.5.18,3.32.96,4,1l-1,3c-2.96,1.95-5,2.66-9.99,3-3.95.27-8.02-.19-11.98,0,.23-7.56,3.55-3.76,5.86-5.12,1.56-.92,1.35-17.38,1.17-20.39-.85-13.98-5.37-27.39-10.03-40.42h-33.97c-.2,0,.2-4,0-4h-45.96v-2h75.93l-3-5.99Z"/>
  <path class="cls-3" d="M468.37,23.45c-6.11,1.32-14.22,5.26-19.98,7.99-.94.45-3.08-.29-3.99,1.5,1.65,1.14,3.66-.54,2.99,2.49-11.35.39-14.7,3.07-23.45,10.02-11.34,8.99-20.68,21.22-27.5,33.93l21.97.02c-.38,1.85-.6,4.65-1.99,5.99-6.2-1.54-25.7,4.46-20.98-5.99-3.59,1.47-6.32.37-9.95-.04-1.79-1.88,5.77-13.74,7.41-15.99,14.03-19.21,34.71-31.48,57.49-37.42,5.5-1.43,12.46-3.63,17.98-2.5Z"/>
  <path class="cls-4" d="M363.47,254.23c-4.92-1.36-3.72-3-4-3h-35.96v-3h31.97c.22-1.24-.32-5.68,0-6,.47-.48,11.39.13,13.53.05,2.26-.09,9.07-2.06,10.32-.89.57.54-.16,4.11,2.61,3.87,13.27-.23,26.37-.19,39.48.98,0,2.8-1.09,12.56-3.21,13.76-1.44.82-14.57.15-17.77.22.16-.35.07-.78.59-.89l4.41-.61c-7.81.29-3.97-3.42-5-4.5-.51-.55-12.49.13-14.99,0-7.27-.35-14.81-2.28-21.98,0Z"/>
  <path class="cls-4" d="M191.64,85.39c.54-1.35,9.02-12.09,7.99-12.98h-12.99s0-3,0-3h14.99c.31,0,.69-4.32,1.5-5.99,3.4-7.03,8.62-13.52,12.43-19.76,2.66-4.36,5.53-9.22,7.19-14.06l10.34-1.16.51,3.01c-6.11,7.72-12.49,19.4-17.98,27.97-1.1,1.72-4.35,3.89-3.99,6.99h4.99c-4.54,7.41-8.87,14.94-13.99,21.97,5.32.04,10.67-.01,15.98.01l-1.99,1.01c-.4,1.65,1.9.6,2.99,1.99-7.41.43-4.57,3.57-11.99,4l-9.99-2.01,2.99-1.99c2.37-2.41-11.06-1.96-11.99-1.99-3.98-.11-8.01.03-11.99,0,7.79-2.3,16.88-.37,24.97-1.01l-9.99-.99c.12-.61-.18-1.55,0-2Z"/>
  <path class="cls-3" d="M809.04,269.21c-1.88,10.85-3.42,22.06-5,32.97-.09.64.13,1.42,0,2-.01.05-1.96.65-.5,1,9.49.02,18.99-.04,28.47,0,.67,0,1.33,0,2,0,5.32.02,10.67,0,15.98,0h14.99c.07.11,1.53.02,1,2-7.79,1.01-59.26-1.74-61.94,1-2.17,2.21-2.37,18.84-3.99,22.97,7.97.35,16.01.59,23.97,1.01v2c-1.66,0-3.33,0-5,0-3.68,0-26.05.98-26.98,0-.46-.48.99-5.16-.99-6,1.1-6.66,1.99-13.31,3-19.98.08-.56.73-1.21,1-3,1.8-11.95,3.18-24.01,5-35.96h8.99Z"/>
  <path class="cls-2" d="M583.26,149.33c-3.69,27.96-6.93,56.06-10.99,83.92l-5.99,3.99c-.92-3.94.93-8.08,1.05-11.57.05-1.41-1.06-2.28-1.05-2.41.04-.66-.05-1.34,0-2,2.67.84,2.91-2.28,1-4,.56-5.99,1.87-11.95,2-17.99-4.8.84-20-1.56-22.98,1-1.09.93-.68,1.13-1,2-.19.52.2,1.54,0,2-5.99.6-.07-1.9-1-4.99-2.65-.04-5.33.03-7.99,0-4.02-.05-6.72.73-9.99,1-.12-3.49-.62-2.76,2.45-3,13.38-1.05,28.01.78,41.51,0l2.99-23.98h-14.99c.34-6.12,12.77-1.32,14.88-3.1,1.32-1.12,2.36-20.07,3.15-20.82.54-.51,5.49.23,6.95-.05Z"/>
  <path class="cls-4" d="M181.65,503.98l-.98-.5c.34,9.11-4.16,5.76-11,7.49-1.25-1.35,4.73-25.23,4.9-29.55.01-.3-3.69-.63-1.9-2.41.26-.25,5.51,1.68,6.99.99-1.82-3.28-3.87-.03-4.07-4.45-.13-2.71,3.89-32.3,5.18-33.39.85-.72,7.96.27,9.88-.1.58.42-4.21,11.86-1,13.98-1.14,7.29-1.86,14.77-3,21.98-.12.78-.82,1.86-1,3-.31,1.94-2.13,16.98-3,16.98-.07,0,.15-1.17-.99-1,.03,1.17-.55,2.93.99,3-.09,2.2-.93,3.31-1,4Z"/>
  <path class="cls-4" d="M356.48,413.07c-.99,10.39-1.84,22.54-1,32.97.15,1.9.65,6.31,1,7.99-2.94,1.42-11.95,2.16-13.49-.99l-1.49-27.98h-16.98v-7.99h18.48c2.38,0,2.31-5.7,2.55-5.94.26-.27,6.24-.21,7.42,0,1.61.28,2.97,1.87,3.52,1.95Z"/>
  <path class="cls-3" d="M400.44,260.22c-1.89,3.98-.39,14.71-2.88,18.41-1.12,1.67-7.14-.44-9.17,1.01-.63.45-1.77,7.52-1.67,8.1.48,2.8,13.77.92,16.72,1.45-5.51,2.2-12.06.46-17.98,1.01l1,3.98-11.98,1.02,5.99,1.99c-2.99.06-6.01-.09-8.99,0-3.59.11-4.53.04-7.99,1-.75.21-2.02-.3-2.92.04-.16,7.42-2.09,14.65-3.07,21.93-3.32-.06-6.67.05-9.99,0,.45-7.71,2.71-15.2,2-22.98,1.21.62,2.17.05,2.99,0,9.84-.51,5.09-.27,7.46-7.03,1.22-3.46,4.72-5.87,4.53-9.96,7.83-.83,16.13,1.09,23.92-1.05-.1-6.3.45-12.71,2.19-18.79,3.26-.37,6.58-.07,9.85-.14Z"/>
  <path class="cls-3" d="M548.29,422.06c.63,10.16-8.49,24.16-8.99,32.97-.03.48,1.11,2.08,1,3-.87.05-2.1-.34-2.8.17s-6.74,13.45-8.19,15.82c-.43.71-2.74.87-1.99,2.99h4.99s-.99,3-.99,3c-2.83.23-8.09-.68-10.34.92-.39.28-2.63,5.31-4.14,7.08-7.38,8.68-24.69,21.08-35.44,24.51-1.5.48-4.08,1.25-5.03-.54,14.92-4.98,30.85-16.18,40.24-28.94.85-1.16.92-1.54.72-3.02h-25.97v-1h26.47c5.13-5.4,8.4-12.69,11.5-19.47l-12-.51c.24-.03,1.1-.94,2.42-1.04,3.16-.24,6.41.24,9.57.04l-.99-2.99c1.05-.06,2.43.54,3.1-.6l8.89-32.37c2.66.02,5.33-.02,7.99,0Z"/>
  <path class="cls-4" d="M733.11,384.1l-7,45.95,8.99,1c-2.14,1.15-4.16,8.37-4.61,10.99-.35,2.04.77,3.86.62,3.98-.28.22-2.99-.06-4,0l-4.02-1.52c.55-5.01,2.93-9.2,2.03-14.47h-11s6.01-42.2,6.01-42.2c1.22-2.75,5.29-.38,7.3-.89,1.17-.3,1.55-1.82,1.68-1.86,1.09-.38,2.88-.87,4-1Z"/>
  <path class="cls-3" d="M362.48,364.12c.15,3.99-2.94,25.08-2,25.98,8.08-1.2,15.81,1.95,23.98,1,.05.66-.04,1.33,0,2-3.38-.77-6.96,1.02-9.99,1-10.79-.09-22.79-2.57-33.97-2h-1c-1.35-2.25.95-15.23,0-18.98,1.55-1.02.71-4.65,1.01-4.99s4.75.23,5.98-.01c.22-1-3.21-1.79-3.99-1.99,2.46.45,4.69-.64,6.99-1,.46,1.21,1.93,1.09,3,1,2.5-.21,5.92-.61,8.39-.98,1.29-.2.36-2.9.61-4.01,1.67-.27.95,1.89.99,2.99Z"/>
  <path class="cls-4" d="M430.41,252.23c-1.07,4.17,2.28,2.43,3.47,4.04.51.69.28,2.17.77,2.7.88.95,5.21.84,5.65,1.36.55.66-.14,4.9.1,4.9h15.98c-.64,6.57-15.86.21-17.97,4.51-.25,2.35,2.97.91,2.03,3.88-1.95,4.16-3.76,31.24-5.09,32.52-.48.47-12.47,1.38-11.94-2.94.31-1.89.58-11.56,1-11.99,1.27-1.34,10.29,3.12,8-3.99h-7c1.37-11.12,2.75-22.24,4.09-33.37.1-.83.89-1.42.91-1.6Z"/>
  <path class="cls-4" d="M283.55,151.33c1.76-3.72,6.73-1.45,9.99-2l-8.44,60c-4.87,1.75-8.68,2.64-9.55-3.06-.09-.61,0-1.35,0-2,3.95.4,1.03-1.56,1-2-.84-12.88,5.1-37.02,6.99-50.95Z"/>
  <path class="cls-3" d="M377.46,145.33c-1.22,9.57-2.58,18.78-4,27.97-1.27,8.23-1.6,16.71-3,24.98-5.64-.1-11.33.08-16.98,0-.85-4.37,8.49-2.47,8.99-2.99.7-.72.97-17.22,1.99-19.99h-35.47c-.17,0-1.57-1.35-1.5-2h36.46c1.06-.63,1.24-1.4,1.47-2.53,1.66-8.19,2.09-18.05,3.02-26.45l9,1Z"/>
  <path class="cls-4" d="M708.14,467.02c6.75,2.98,10.15-2.09,9.99,6.99-.19,10.36-3.79,20.78-5,30.97l-.98-.49c.49,8.18-5.04,5.01-11,5.48,2.06-11.91,3.29-23.99,4.99-35.96.05-.38,1.65-1.5.99-2.99-1.32-.07-2.67.07-3.99,0-6.23-.35-12.72.04-18.98,0h-3c-.66,0-1.34.03-2,0h-1c-.58-.05-7.64.51-5-1.99,1.29-1.22,11.45-.93,13.99-1.01,1-.03,2,.03,3,0,2.65-.07,5.34,0,7.99,0,1,0,2,0,3,0s2-.01,3,0c1.74.02,2.84-1,3-1,.33,0,.67,0,1,0Z"/>
  <path class="cls-3" d="M819.03,149.33c1.44.03,7.97-.43,8.01.51l-8.01,59.43c-1.09.12-9.93,2.42-10.01.48l9.01-60.43c.33,0,.67,0,1,0Z"/>
  <path class="cls-2" d="M516.33,149.33c4.29.39,9.34-.54,13.51,0,1.44.19,1.7-.56,1.43,1.43-1.6,11.64-4.13,23.07-6.4,34.58-1.22,1.74-9.84.87-12.53.96,1.07-12.38,2.6-24.9,4-36.96Z"/>
  <path class="cls-3" d="M195.64,384.1l.5.98.5-.98c1.33,0,2.66,0,4,0,.56,3.03-1.53,1.92-3.45,2-21.69.86-44.49-1.32-66,0-2.66.16-2.06,2.11-.48,3-4.65,3.11-10.54,5-17.48,5h-46.95c-.25,0-4.79-.98-4.49-1.99,4.91-.51,10.83.65,15.59.05,1.52-.19,2.2-1.02,2.39-1.06,3.94-.77,4.76-.63,8.99,0,2.06.31,4.01,2.63,6.99,0,2.26-2,1.93-7.46,6.45-7.04,31.15.16,62.32-.06,93.45.05Z"/>
  <path class="cls-1" d="M670.18,386.1c.33,0,.67,0,1,0-.52,1.64-.83,3.28-1,5-.06.66.04,1.34,0,2-24.62-.3-49.31.21-73.93,0-.15-1.61.12-6.68,1.66-7.03,24.08-.05,48.19.21,72.27.04Z"/>
  <path class="cls-4" d="M686.16,187.29c3.65-.02,7.33,0,10.98,0,.74.66-3.82,7.64-4.57,8.9-1.75,2.92-12.49,21.2-13.6,21.85-2.6,1.52-9.64-1.65-12.84,1.65-4.03,4.15-11.56,19.89-15.09,25.9-.53.9-1.65,1.33-1.83,1.63-.4-.17-.83-.98-1-1l-.1-4.55,22.03-37.96c3.65-3.72,10.74,1.1,14.51-3.47.71-.87,3.57-6.54,3.58-7.4,0-.23-3.33-1.85-3.05-3.55l5.99-.02-4.99-1.99Z"/>
  <path class="cls-4" d="M501.34,249.23l-5.89,8.6-2.11,7.39h-21.98c2.88-6.82,8.68-11.84,12.16-18.31,1.35-2.52,3.5-10.19,3.92-10.56.86-.74,9.23.36,11.32-.17.21.04,1.43,3.48,1.57,4.07.62,2.63,1.08,7.97,1,8.99Z"/>
  <path class="cls-3" d="M817.03,212.27l-6.99,50.95c.14,2.03,4.99.23,5.01,1.5-1.07,2.15-4.79.33-4.99.51-.27.25.18,1.54-.02,1.99-.17.38-.95.74-1,1,.88-3.66-5.01-1.46-7.99-2,2.69-17.75,3.89-35.81,7.88-53.37.76-1.12,6.37-.6,8.11-.58Z"/>
  <path class="cls-2" d="M723.12,380.1c3.02-.08,22.19-.83,22.98,0,.14.14.14,3.84,0,3.99-.45.47-10.71-.25-12.99,0-1.12.13-2.9.62-4,1-6.99.75-15.81-1-22.53-.06-11.85,1.67-22.92.96-35.41,1.05-.33,0-.67,0-1,0-1.04-1.66-3.79-1-5.48-1.02-7.16-.09-14.35.02-21.49.02.42-1.53-1.38-3.81,1.47-4,24.13-1.64,50.59.61,75.08.08,1.8-.04,3.2-1.07,3.38-1.07Z"/>
  <path class="cls-4" d="M839.01,29.45c.21.14,1.33-.36,1.79.18,3.16,3.74-.72,12.55-1.53,16.55-.99,4.88-2.39,11.27-2.37,14.83.04,5.52,1.48,9.84,1.1,15.87-.61,9.72-6.27,13.35,6.01,11.5h5.99c2.99,0,6,.03,8.99,0,.67,0,1.33,0,2,0h4c.77.17,2.78-.25,3,0,2.06,2.4-1.32,2.72-2,2.99h-29.97c.89-4.77-8.89.77-7.99-4,1.89-11.18,3.34-20.26,3.46-31.05.08-6.79,6.15-19.64,7.53-26.89Z"/>
  <path class="cls-2" d="M200.63,384.1c6.65.04,13.34-.03,19.99,0,1.18,4.15-1.37,7.81-2,10.99-6.31-1.59-13.59-3.29-19.98-4-5.63-.62-12.27-.79-17.98-1-4.38-.16-9.13.09-12.99,0-4.94-.12-35.43-2.03-36.96-1-1.58-.89-2.18-2.84.48-3,21.51-1.32,44.31.86,66,0,1.93-.08,4.01,1.03,3.45-2Z"/>
  <path class="cls-4" d="M780.07,413.07c2.99.06,6.01-.05,8.99,0-2.21,11.76-2.4,25.81-5,37.29-.25,1.11-3.13.13-1.99,2.67h14.49l6.49,1.99c-7.09-.57-14,.44-20.97,1.01-3.02.25-9.29,1.94-7.99-1,.05-.33-.05-.67,0-1,.13-.96-.14-2.04,0-3,1.85-12.62,4.68-25.27,5.99-37.96Z"/>
  <path class="cls-3" d="M834.02,100.38c-1.28,15.32-5.49,30.54-7.1,45.85-2.61.3-5.27.06-7.89.11.25-2.3,1.42-5.42,1.04-7.48-.29-1.59-3.33,1.51-2.94-2.89.59-6.57,2.95-8.49,4.25-12.71,2.04-6.59,2.47-15.91,3.63-22.88h8.99Z"/>
  <path class="cls-4" d="M419.42,334.15c1.22,2.17,7.39.39,8,.99,1.27,1.28-2.95,27.48-3.88,31.4.76,3.16,10.88.53,10.88,2.07l-13,.51c1.23,5.22-1.34,11.03-1.99,15.97,1.01-3.94-6.64-.52-5.99-5,.45-3.59.54-7.39,1-10.99,1.47-11.61,3.61-23.61,5-34.97Z"/>
  <path class="cls-2" d="M516.33,213.27l-2.14,24.34c-.87,2.6-4.67.89-4.91,2.19-.64,3.4,1.17,8.05,1.13,11.94-.06,5.68-2.38,12.59-2.07,18.47-3.32.05-6.67-.03-9.99,0,1.09-7.24,2.42-13.55,3-20.98.08-1.02-.38-6.36-1-8.99.05-.66-.07-1.35,0-2l1-2c.04-.32-.03-.67,0-1,2.23-.28,7.25.87,8.53-.96.81-1.15,2.89-19.19,2.46-21.02h4Z"/>
  <path class="cls-2" d="M508.33,392.09c-.21,1.32.34,3.09-.09,4.42l-.91.58c-2.03-1.65-14.46-1.59-14.99,0l-3.99,25.97c2.18.3,12.91-1,12.96,1.5,0,.15-1.11,2.41-1.64,2.54-2.21.56-9.35.01-12.32-.04l-.94-3.65-7.06-.34c.03-1.32-.08-2.68,0-4,.22-3.29,3.65-25.62,4.93-26.54,7.78.05,16.64-1.9,24.04-.43Z"/>
  <path class="cls-3" d="M501.34,359.12c-3.01,2.59-7.01-.7-10.48-1.01-4.16-.37-8.74.18-13,0-1.34-.06-4.16.83-3.49-1.49.43-1.51,10.77.33,11.89-.62,1.38-1.17,3.86-34.54,5.15-35.8.45-.43,10.42-1.27,9.94,2.94-1.35,6.78-5.04,27.6-4,32.97.15.77-.33,2.57.05,2.92.46.42,2.88-.05,3.94.08Z"/>
  <path class="cls-4" d="M242.59,463.02l7.99-.99-6.47,46.96c-2.5,2.89-5.36.95-8.51.99v-1c1.62-15.41,4.69-30.67,6.99-45.96Z"/>
  <path class="cls-3" d="M651.19,372.11c-.43.05-1.52.97-3.38,1.07-4.82.26-32.25-1.08-33.59-.07-.13.09.03,1.56,0,2,2.38-.04,5.27-1.07,6.42-1.02.59.03.4,1.71,1.29,1.97,1.05.3,2.5-.17,3.61.22,1.75.61,1.47,4.18,6.71,3.4.97-.14,1.84-1.38,2.47-1.59.57-.19.29,1.79,1.13,2.01,1.92.5,5.93-.07,8.34,0,26.26.69,52.66-.51,78.92,0-.18,0-1.58,1.03-3.38,1.07-24.49.53-50.94-1.72-75.08-.08-2.85.19-1.04,2.47-1.47,4-5.62,0-41.33.7-42.97-1.01l1-2.98c-1.09-.91-7.82,1.98-6.99-2.01,1.33-.05,2.67,0,4,0l1.49.99.51-.99c1.66,0,3.33-.01,5,0,.12,0,.81.97,2.31.96.73,0,6.43-.74,6.68-.97.22-.2-.03-3.02,0-3.98-2.32.04-4.67-.02-6.99,0-1.05-4.22,5.32-.21,5.98-2.98h-10.98s-8.99-.01-8.99-.01v-1l57.94,1Z"/>
  <path class="cls-2" d="M518.32,119.36c-3.3.21-6.69-.15-10,0,.7-14.09-3.66-26.81-16.98-32.97,8.41.49,14.42-1.75,20.97,5.5,6.79,7.52,6.25,17.97,6,27.47Z"/>
  <path class="cls-2" d="M754.09,59.42l4.99.49c-9.56,17.92-20.77,34.93-30.96,52.46l-4.99-.98c2.66.4,1.9-2.56,2.9-4.58s3.7-3.56,3.08-6.42l-6.98-.99c3.17-.04,5.22.62,7.99-1.01,1.54-.91,6.48-9.32,5.99-9.98-2.27-1.76-15.94,1.91-15.96-1.51-.01-2.38,7.05-.57,7.97-2.5,3.53.08,8.08.72,10.99-1,1.93-1.14,12.75-20.23,14.99-23.98Z"/>
  <path class="cls-2" d="M715.13,125.35c2.51.12,4.62-1,4,2-.49.84-.64,2.65-1.44,4.02-10.9,18.6-22.35,36.91-32.52,55.92-.33,0-.67-.01-1,0-1.33.05-2.68-.09-4,0-.03.66.02,1.33,0,2-.57.18-1.77-.21-2,0v-1c.24-.02,1.07-.94,2-1,.28-5.49,22.42-41.16,26.97-48.95.42-.71.67-1.43,1-2,2.14-3.69,4.8-7.3,6.99-10.99Z"/>
  <path class="cls-2" d="M444.4,126.35c3.65.08,7.34-.06,10.99,0,.4,4.28-3.53,7.04,2.02,7.49l-2.01,15.47c1.57.28,8.62-.37,8.99,0,.26.27.26,2.45-.59,3.08-1.78,1.31-7.14.65-7.41.91-.23.23.13,3.86,0,5-.61-1.3-2.42-8.74-3.58-9.05-4.06-1.09-9.86.96-13.41,3.06-1.84-.04-4.47.48-5.99-.49.69-4.5,7.13-1.63,7.98-2.51.8-.83,2.33-19.88,3-22.97ZM452.38,147.33v-3.99h-.98v3.99h.98Z"/>
  <path class="cls-2" d="M485.36,86.39c-9.73,2.75-16.94,8.73-22.17,17.29-1.1,1.8-5.64,10.8-5.8,12.23-.02.23,3.89,1.48,2,3.45-.73.75-18.04-.55-20.98,0,2.54-2.41,8.61.01,9.89-1.1.37-.32,2.09-7.36,3.08-9.4,7.13-14.75,13.73-23.83,31.55-23.51,1.27.02,2.3,1.05,2.43,1.05Z"/>
  <path class="cls-2" d="M379.46,132.35c-.86,3.98,6.1,1.11,6.99,2l-4,35.96h21.98v2.99s-30.97,0-30.97,0c1.42-9.19,2.77-18.4,4-27.97.48-3.72.55-7.55,1-10.99.12-.94.96-1.73,1-2Z"/>
  <path class="cls-3" d="M386.45,101.38c-3.67,6.53-5.86,23.16-6.99,30.97-.04.27-.88,1.05-1,2h-8.99c.86-8.38,1.85-16.85,4-24.98.34-1.3.7-3,1-4,.35-1.15,1.41-2.25,1.07-3.91,3.62-.22,7.29-.04,10.92-.08Z"/>
  <path class="cls-3" d="M356.48,457.03l1.01,4.99.99-1c.82,2.34,5.84,14.44,6.93,15.55,2.16,2.19,4.42,1.27,7.06,1.44-1.03,1.88-3.64.82-5.25.7-3.74-.28-13.98-.15-16.07-.86-.76-.26-3.34-4.06-3.65-4.84-.2-.49.2-1.51,0-2-.93-2.28-5.27-13.68-4-14.98,4.29.31,9.04-.91,12.99,1Z"/>
  <path class="cls-2" d="M735.11,431.05c3.86-2.07,13.09.78,18.03.44,2.59,1.76-1.5,10.67-2.19,13.41-9.27.95-18.51,1.74-27.84,2.13.94-1.62,2.4-.88,4-1,1.01-.07,3.71.21,4,0,.16-.13-.96-1.94-.62-3.98.45-2.62,2.47-9.85,4.61-10.99Z"/>
  <path class="cls-3" d="M270.57,305.18l-2.58,25.02c1.59,2.19,19.67.33,23.56.95-.15,0-1.12.96-2.42,1.04-4.37.25-9.97-1.1-13.57.96-5.98-.05-12.01.04-17.99,0l3-27.98c3.28.21,6.69-.05,9.99,0Z"/>
  <path class="cls-3" d="M283.55,214.27c.07,3.98-2.92,29.83-4.04,30.92-.54.52-8.15-.27-9.95.05l4.08-30.42.92-.55c2.99-.03,6,.05,8.99,0Z"/>
  <path class="cls-3" d="M298.54,104.37l1,1c1.28,6.37-4.09,26.14-5,33.97-2.91-.69-7.62,2.8-8.02-1.48l5.02-33.49c2.18.27,4.96-.38,6.99,0Z"/>
  <path class="cls-2" d="M378.46,492.99c19.63.03,39.31-.03,58.94,0,.31,1.92-.79,2.67-2.5,2.99-5.12.93-18.14.28-24.02.06-1.44-.05-5.2-1.22-5.43-1.05-.3.23-1.52,6.45-2.16,6.86-.58.37-12.22.4-13.85.14-2.96-.48-9.02-6.28-10.99-8.99Z"/>
  <path class="cls-4" d="M508.33,270.21c3.68-.05,7.58.65,10.98-1,2.2,10.08-10.37,4.33-11.97,6-.8.84-2.38,19.71-3.01,22.97l-.8-.69c.77-6.66-2.98-3.84-8.19-4.31,1.11-7.59,1.91-15.76,3-22.98,3.32-.03,6.67.05,9.99,0Z"/>
  <path class="cls-4" d="M291.55,331.15c3.63-.21,7.36.15,10.99,0l-3.11,25.86c-3.27.33-6.6,0-9.88.11l3-23.98c-5.65-.04-11.34.05-16.99,0,3.59-2.06,9.19-.7,13.57-.96,1.29-.08,2.27-1.03,2.42-1.04Z"/>
  <path class="cls-2" d="M519.32,119.36c.61-.03,1.96-.93,3.44-1.01,4.16-.22,8.39.16,12.55.01,1.64,6.93-4.18,2.62-5.9,4.09-.33.28-1.85,7.33-1.99,8.5-1.11,9.34,3.33,14.93-10.1,14.38.08-.65-.08-1.35,0-2,.56-4.78.48-10.24,1-14.99.26-2.33,1.9-5.77,1-8.99Z"/>
  <path class="cls-4" d="M512.33,213.27c.43,1.83-1.64,19.87-2.46,21.02-1.29,1.83-6.3.68-8.53.96.78-9.85-.37-20.09,1-29.97,2.52-2.47,9.49,5.89,9.99,7.99Z"/>
  <path class="cls-4" d="M563.28,388.1c-.83,5.42-6.55,2-10.28,2.98-.88.23-1,1.8-1.79,2.38-1.01.74-3.64,1.13-3.91,2.14-.68,2.57,4.84,2.94,5.08,4.12.46,2.32-2.94,14.68-3.08,19.34,9.65.02,19.94-.5,29.5,0,2.04.11,1.89.62,1.47,2.5-.34,1.55-28.18.54-30.98.5.02-1-.03-2,0-3-2.89,0-6.7-1.01-7.99-1l2-20.98h-11.99c1.81-2.33,12.18-.16,12.98-1-.39-2.49.69-4.73,1.01-6.99,2.4-.08,6.47.51,8.35.02,1.02-.27.56-1.95.64-2.02.35-.28,6.85,2.14,8.99,1ZM545.29,399.08c.72-1.4-.63-2.67-.98-1.99-.72,1.4.63,2.67.98,1.99Z"/>
  <path class="cls-4" d="M249.59,416.07c.15.01.52.89.98,1.01-1.14-7.09,3.14-2.38,8.01-3-1.24,6.74-2.27,13.66-2.99,20.48-.29,2.73.4,5.97,0,8.49,11.13-.27,22.32.19,33.46,0l2.5,2.99c-13.25,1.37-26.62,1.07-39.96,1,2.3-1.6,3.49-.93,4-4-3.31.08-6.69-.17-9.99,0l3.01-26.47c.13-.5.55-.55.99-.5Z"/>
  <path class="cls-2" d="M366.47,340.14l-4,23.98c-.04-1.1.68-3.26-.99-2.99-.26,1.11.68,3.81-.61,4.01-2.47.38-5.89.78-8.39.98v-1c.32-8.39,1.98-16.69,3-24.98h10.99Z"/>
  <path class="cls-3" d="M218.62,395.09c-.42,2.13-.6,9.6-2.21,10.79-2.78,2.07-14.83.8-18.77,1.2.65-3.49,1.13-7.2,1.76-10.75.28-1.57.98-4.26-.76-5.23,6.39.7,13.67,2.4,19.98,4Z"/>
  <path class="cls-3" d="M774.07,455.03c-1.3,2.94,4.97,1.24,7.99,1l-4,29.97c-2.99-.04-6-.02-8.99,0l3-17.98c.06,1.11-.7,3.25.99,2.99-.88-4.21,2.82-9.25,0-12.98.22-1.52.95-2.66,1-3Z"/>
  <path class="cls-3" d="M730.12,98.38c-2.76,1.63-4.82.97-7.99,1.01l6.98.99c.63,2.86-2.05,4.34-3.08,6.42s-.25,4.98-2.9,4.58l4.99.98c-2.91,5-6.14,10.11-8.99,14.99.62-3-1.48-1.87-4-2,.94-1.58,7.7-12.35,6.99-12.98h-10.99c-.46-1.79,5.5-13.42,6.15-13.83,1.62-1.02,10.12.39,12.83-.16Z"/>
  <path class="cls-4" d="M369.47,483c.37,2.74,6.59,7.3,7.99,9.99-21.8-.04-43.64.02-65.45,0l-1.48-2h48.95l-4.99-7.98c4.89-.43,10.39,1.03,14.99-1.01-.04.02-.03.77,0,1Z"/>
  <path class="cls-4" d="M594.25,379.1c-.83,3.99,5.9,1.1,6.99,2.01l-1,2.98c1.64,1.7,37.35,1,42.97,1.01,7.15,0,14.34-.11,21.49-.02,1.69.02,4.44-.64,5.48,1.02-24.07.17-48.19-.09-72.27-.04-1.54.35-1.82,5.43-1.66,7.03-4.32-.04-8.67.03-12.98,0,1.34-2.83,1.09-11.1,2.45-13.02,1.18-1.67,6.29-.87,8.53-.96Z"/>
  <path class="cls-3" d="M439.4,152.33c3.55-2.1,9.35-4.15,13.41-3.06,1.16.31,2.97,7.76,3.58,9.05-.27,2.57-1.4,17.3-2.05,17.93-.28.28-7.67.34-7.95.06-.19-.2.09-4.23-.02-5.52-.14-1.62-.97-1.39-.97-1.48-.02-2.69,3.39-15.61,2-16.99-2.66-.04-5.34.06-8,0Z"/>
  <path class="cls-3" d="M826.02,370.11c.16,0,1.17-1.04,2.46-1.09,3.72-.13,6.71,1.95,10.52.09-1.03,4.61-.56,10.66-1.99,14.98-1.77,5.33-7.76,2.46-12.99,3-.78-2.17,1.5-6.55,1-7.99-.58-1.66-3.28-.07-2.99-1.99,3.22,1.41,4.59-4.24,3.99-7Z"/>
  <path class="cls-4" d="M842.01,336.15c3.61.9,2.46,1.36,3.78,1.91,2.09.88,4.02.39,6.71,2.08,2.06,1.29,6.51,7.02,4.5,9-1.36,1.33-11.47-.17-13.53-.12-1.8.05-1.31,1.91-2.14,2.1-3.88.87-9.91-.1-14.06,1.83l-2.25-2.81c1.68-2.08,15.41-1.42,15.99-1.99.43-.43.03-9.91.99-11.99Z"/>
  <path class="cls-4" d="M407.43,312.17l.5,5.01c1.24.01.02-6.53.49-7.01.4-.4,10.32-.19,11.35.15,4.85,1.59-.26,5.19-.34,5.52-.7,2.93.28,5.08,1.98,7.31-4.65.04-9.33-.01-13.99.01-5.07-1.68-12.98-1.67-17.98,0-.34-.03-.96.07-1,0-.12-.24-.11-2.88,0-2.99.62-.65,15.42.47,17.99,0-.6-3.27.24-5.26.99-8Z"/>
  <path class="cls-4" d="M518.32,128.35c-.52,4.74-.43,10.21-1,14.99l-2,5.99-9.98-1.49c3.29-2.26,1.97-19.44,2.98-20.49.35-.36,8.55-.24,10,1Z"/>
  <path class="cls-3" d="M65.77,373.11c.56,1.46,1.3.91,2.44,1.04,4.53.54,10.72-.11,15.54-.05,2.24,2.76,8.87-1.23,7.99,3-2.66-.01-5.33.03-7.99,0-4.05-1.66-11.73-1.69-15.98,0-.67,0-1.33.01-2,0l-.5-.98-.5.98c-.33,0-.67,0-1,0-4.96-.09-10.59-.87-15.98-1-1.66-.04-3.33.03-5,0-1.33-.02-2.66,0-4,0-1,0-2,0-3,0-1.33-.01-2.66.02-4,0-3.99-.06-8.01.05-11.99,0v-2.99c11.64-.19,23.34.24,34.97,0,2.99-.06,6,.04,8.99,0,1.28-.15.9-1.12,1-2,.04-.33-.04-.67,0-1h1c0,.84-.19,2.49,0,3Z"/>
  <path class="cls-4" d="M445.39,209.27c-.4,2.87-1.29,19.27-1.99,19.99-.32.32-7.25-.25-8.99.99.95-2-1-4.73-1.01-4.99-.05-1.5,2-14.38,2.46-15.03,1.33-1.9,7.14-.62,9.53-.96Z"/>
  <path class="cls-4" d="M837.01,384.1c-.12,3.49-.62,2.76,2.45,3,4.48.35,8.23-.86,11.54-1h1c2.72-.1,12.43-.51,14,.49,2.98,1.9-1.61,4.14-3.56,4.46-7.6,1.24-23.53.31-31.96.1-3.56-.09-6.54-1.69-10.45-.05.13-.98-.23-2.12.45-3.03.93-1.26,2.29-.84,3.55-.97,5.23-.54,11.22,2.34,12.99-3Z"/>
  <path class="cls-3" d="M413.43,380.1c-.65,4.47,7.01,1.05,5.99,5-.68,5.13-.65,10.41-2.01,15.47-.01.95,1.32.43,2.01.52-4.07.87-4.02,4.93-2,7.99-.07.02-.98.93-1,1-1.47-2.25-4.74.11-6.99,0,.38-8.37,1.96-16.69,3-24.98.25-1.99.85-3.8,1-5Z"/>
  <path class="cls-3" d="M518.32,25.45c18.47,3.63,33.29,10.02,45.95,24.48l-6.99.49c-3.9-4.34-10.55-9.73-15.46-13.02-7.66-5.12-15.58-7.66-23.51-11.96Z"/>
  <path class="cls-3" d="M777.07,489c-.01,2.8-1.3,20.19-2.05,20.93-.28.28-7.67.35-7.94.06-.4-.43.83-4.36-1-5,1.11-5.13,1.73-10.73,2-15.98,2.93.06,6.14-.26,8.99,0Z"/>
  <path class="cls-3" d="M389.45,502.98c9.06,2.67,17.47,8.99,28.62,11.89,1.77.46,3.95-1.07,3.35,2.09-11.95-.63-32.42-5.56-42.08-12.4-1.18-.84-2.45-.03-1.87-2.58,4.21-.16,7.89-.21,11.98.99Z"/>
  <path class="cls-2" d="M193.64,432.05l18.96.48c-1.92,2.01.04,6.5-1.96,8.03-3.12,2.39-13.87,1.12-18.01,1.47.47-3.01.5-6.63,1-9.99Z"/>
  <path class="cls-4" d="M283.55,392.09c-.53.81-2.32.64-1.99,1.99l17.97.02c.24,1.87-1.98.6-3.27,1.01-.92.29-.34,1.84-2.15,2.06-2.79.34-5.52-.84-7.88-.7-3.92.23-9.75,1.98-13.2,1.73-2.02-.15-.7-2.45-3.99-2.18-2.5.21-.62,2.23-2.46,2.06-.13-.81.53-2.85-.56-3.06-1.2-.23-12.01-.39-12.45.06-.52.53,1.11,4.23-.98,4l-1.01-4.99c.17-.67-.56-2.1.59-2.03l31.38.03Z"/>
  <path class="cls-3" d="M820.03,395.09c-.35,1-.42.89-1.45,1.03l-25.89,1.11c-2.97.97-1,10.26-2.74,11.74-.56.48-8.51,1-8.88-1.89.23-1.95,1.41-11.72,2.61-12.05l36.35.06Z"/>
  <path class="cls-4" d="M63.77,377.11c-.36,3.8-.43,8.74-2,11.99-.11-1,.59-2.29-.99-1.99,1.47,7.49-5.48,2.26-10.01,2.99-.59-.57,2.18-10.05,1.01-11.99l-2-1c-.32-.2-1.42.13-2,0v-1c5.4.13,11.03.91,15.98,1Z"/>
  <path class="cls-3" d="M376.46,211.27c-.15,1.3.15,2.69,0,4-3.22-.56-1.72,1.63-1.95,3.5-.69,5.49-1.63,10.96-2.05,16.48-1.97-.33-1.36-6.38-2-6.99-2.07-1.99-1.61,3.51-3.98,1.99l-1-5.99c.55-4.28,1.3-8.71,2-12.99h8.99Z"/>
  <path class="cls-4" d="M376.46,215.26c-.91,7.96-2.6,15.94-3,23.98h27.98c-.64,1.38-1.24.91-2.42,1.05-11.07,1.35-24.34-1.05-35.54-1.06.84-4.96,1.35-9.99,1.99-14.98l1,5.99c2.37,1.51,1.91-3.98,3.98-1.99.63.61.03,6.66,2,6.99.42-5.52,1.36-10.98,2.05-16.48.23-1.87-1.27-4.06,1.95-3.5Z"/>
  <path class="cls-2" d="M355.48,446.04h14.99s0,10,0,10h-7c-1.11-1.92-4.26-.66-5.99-1-.1-.02-.98-.89-1-1-.35-1.69-.85-6.09-1-7.99Z"/>
  <path class="cls-4" d="M364.47,280.2c.19,4.09-3.31,6.5-4.53,9.96-2.37,6.76,2.38,6.52-7.46,7.03-1.92-1.74-2.29-10.73-.89-11.87.5-.41,4.17.04,5.95-.54,3.33-1.09,1.82-4.03,6.92-4.57Z"/>
  <path class="cls-3" d="M495.35,293.19c5.21.47,8.96-2.35,8.19,4.31l.8.69c-.36,1.87-.33,2.09-1,4-2.27,6.47-3.22,5.09-10,5-.98-.99,1.68-11.79,2-13.99Z"/>
  <path class="cls-3" d="M566.28,223.26c0,.13,1.1,1,1.05,2.41-.12,3.49-1.97,7.63-1.05,11.57l5.99-3.99c-.27,1.87-.61,10.6-1,10.99-.32.32-7.78-.02-9,1.01-.31.26,1.04,1.71,1,1.99-4.36.04-8.41.31-12.67-.86-1.71-.47-2.77.73-2.31-2.13h14.99l3-20.98Z"/>
  <path class="cls-2" d="M357.48,320.16c2.15.04,18.86-.44,18.99.5.73,4.1-3.11,2.84-4.95,4.04-1.16.76-1.2,2.77-2.7,3.29-2.78.97-8.13-.35-11.34.15.33-2.49-.34-5.51,0-7.99Z"/>
  <path class="cls-2" d="M822.03,370.11c1.31-.12,2.68.06,4,0,.6,2.76-.77,8.42-3.99,7-.29,1.92,2.41.33,2.99,1.99h-14.98c1.15-11.05,3.9-8.23,11.99-8.99Z"/>
  <path class="cls-4" d="M479.36,419.07c-.09,1.32.03,2.68,0,4l7.06.34.94,3.65c-.33,0-.67,0-1,0-1.55-.04-7.56.28-7.99,0-.09-.06.4-1.73-.65-2.01-4.47-1.19-13.65.93-18.82,0-1.33-.24-2.82-.94-2.5-2.48.57-2.71,16.27-1.22,19.57-1.44,2.02-.14,2.45-.17,3.4-2.07Z"/>
  <path class="cls-3" d="M265.57,278.2c.15.01.53.88.98,1.02l1.01-3.01c-.34,3.85,5.37,3.49,5.89,4.1,1.08,1.24-.62,8.64-.88,10.88-2.71.91-6.4,2.47-8.99,1,.61-3.92.23-9.31,1.01-13.48.13-.5.54-.55.99-.5Z"/>
  <path class="cls-4" d="M620.22,246.23c2.65-.09,5.34.05,7.99,0,.67-.01,1.33,0,2,0,3.65-.05,7.34-.04,10.99,0l2,4c-.65-.07-1.34.04-2,0-4.61-.25-9.36.02-13.99,0s-9.33.02-13.99,0h-1c-4.18-4.9,5.23-3.9,7.99-4Z"/>
  <path class="cls-3" d="M512.33,186.29c-.16,1.81.05,3.28,0,4-.24,3.39-1.8,7.18-1,10.99-2.66-.07-5.34.05-8,0,.28-4.93-.88-10.19,1.14-14.85,2.59-.39,5.24-.06,7.85-.14Z"/>
  <path class="cls-4" d="M370.47,198.28c2.65.05,5.34-.04,7.99,0-.74,4.24-1.52,8.72-1.99,12.98h-8.99c.76-4.64,2.54-10.3,3-12.99Z"/>
  <path class="cls-2" d="M559.28,53.42c.88,1.26,2.14,1.99,2,4-9.97-.17-20,.13-29.97,0-.38-.35.69-3.79,1.68-4.03,6.39-1.57,19.12,1.24,26.29.04Z"/>
  <path class="cls-2" d="M265.57,301.18c.66-.03,1.33.02,2,0s1.33.01,2,0c2.04-.04,13.51-.5,13.99,0,.14.14.14,3.84,0,3.99-.45.47-11.05.03-12.99,0-3.3-.05-6.71.21-9.99,0-.14,0-1.14-.92-2.42-1.04-.94-.09-13.17.8-9.56-1.95,4.38.89,9.21-.76,12.98-1,1.32-.08,2.67.05,4,0Z"/>
  <path class="cls-2" d="M826.02,97.38c1.92-.09,5.3-1.95,8-1,.03,1,0,2,0,3,0,.33.03.67,0,1h-8.99c-8.98,0-18,0-26.98,0v-2.99c9.28-.34,18.71.45,27.98,0Z"/>
  <path class="cls-4" d="M294.54,139.34c-.15,1.3.09,2.69,0,4,.73.73,8.74-1.27,10,1-6.64-.17-13.34.12-19.98,0,.1-12.74,4.36-27.23,5.99-39.96.04.08.66-.04,1,0l-5.02,33.49c.4,4.28,5.11.79,8.02,1.48Z"/>
  <path class="cls-4" d="M670.18,391.09c3.75.55,41.03-1.32,40.97,1.5-1.73,1.09-4.42,1.4-6.47,1.54-11.53.77-23.16-.9-34.5-1.04.04-.66-.06-1.34,0-2Z"/>
  <path class="cls-2" d="M722.12,454.03c1.33-.03,2.67,0,4,0,1.74,8.07-3.76,3.34-5.56,5.94-1.58,2.27-.34,11.31-2.43,14.05.16-9.08-3.24-4.02-9.99-6.99-.63-12.16,4.52-6.74,12.41-7.97,1.26-.2.3-3.81.58-5.01.33-.02.67,0,1,0Z"/>
  <path class="cls-4" d="M810.04,263.22c2.69-1.04,6.92,1,8.49,1h28.47c.14,4.27-5.01,2.81-7.99,3h-3c-3.98.06-8,0-11.99,0-2,0-4-.03-5.99,0-1,.02-2-.03-3,0h-3c-.31-.07-.68.05-1,0h-1c.2-.45-.26-1.74.02-1.99.19-.18,3.92,1.64,4.99-.51-.02-1.27-4.86.53-5.01-1.5Z"/>
  <path class="cls-3" d="M155.68,86.39c4.05.12,7.6,1.05,11.49,1.07,8.22.04,16.34-1.99,24.47-.07l9.99.99c-8.09.64-17.18-1.29-24.97,1.01-.67,0-1.33,0-2,0-.14-1.5-2.86-1.5-3,0-7.63-.04-15.36.27-22.98,0-.33-.01-.67.02-1,0l-2-2c1.15.41,1.88-.98,2-1,1.98-.37,5.73-.07,7.99,0Z"/>
  <path class="cls-4" d="M355.48,338.14c-3.48.08-6.57-.21-9.98,1,.2-8.37-2.5-11.8,7.58-11.05,2.01.15,2.45.16,3.4,2.07-.35,2.65-.67,5.34-1,7.99Z"/>
  <path class="cls-3" d="M184.65,416.07c-.8-.14-2.06.5-2.03-.58.91-1.33,1.76-8,2.12-8.31.51-.44,12.46-1.48,11.89,2.9-.14.44.17,1.05,0,1.48-.2.47-.51.58-.99.51-.15-.02-.47-.93-.98-1.01.65,6.56-.42,5.02-6.01,5.01-1,0-2,0-3,0h-1Z"/>
  <path class="cls-4" d="M844.01,325.16c.38,3.22-.5,3.71-3.45,4.05s-22.64.18-23.52-1.06c-.57-.8.96-2.99,1.49-2.99h25.48Z"/>
  <path class="cls-4" d="M708.14,136.34c-.33.57-.58,1.28-1,2h-31.97v-2.99c10.83.59,22.41-1.26,32.97.99Z"/>
  <path class="cls-3" d="M506.34,312.17l22.07.48c2.91,9.12-2.76,8.07-10.08,7.51,1.09-1.38,3.38-.33,2.99-1.99-3.32.71-3.59-2.46-5.99-4.01,1.11-.05,3.26.69,2.99-.99-4.3.51-8.04-.23-11.98-1.01Z"/>
  <path class="cls-3" d="M518.32,379.1c.93-.15,2.03.09,2.99,0,.44.46-.55,8.42-1.1,8.89-.85.73-8.82-.28-10.88.11.17-1.21-.54-6.73,1.13-7.87.89-.61,3.9.15,5.44-.08,1.3-.19,2.15-1,2.42-1.05Z"/>
  <path class="cls-4" d="M536.31,199.28c2.65.03,5.33-.03,7.99,0,.93,3.09-4.98,5.59,1,4.99-.96,2.19-6.22.12-9,1.49-.86.42-3.28,4.3-3.99,5.5-1.37,1.01-6.45.81-6.99-.99,6.93-1.31,6.8-7.05,10.98-11Z"/>
  <path class="cls-2" d="M769.08,486c2.99-.02,6-.04,8.99,0,1,.01,2-.03,3,0,.04,2.36.67,3.46-2,3-.16-.14-1.4.05-2,0-2.85-.26-6.06.06-8.99,0-5.98-.11-12.01.09-17.99,0v-2.99c6.32-.04,12.67.04,18.99,0Z"/>
  <path class="cls-2" d="M282.55,376.11c3.65-.07,7.34-.04,10.99,0,.61,2.36,3.55,1.44,5,3-4.18.13-9.78.98-12.99,1-6.19.04-11.8-1.42-17.98-1,.51-4.89,10.92-2.92,14.98-2.99Z"/>
  <path class="cls-2" d="M512.33,190.29h7.99s-1,10.99-1,10.99c-2.59.15-5.39.07-7.99,0-.8-3.81.76-7.6,1-10.99Z"/>
  <path class="cls-4" d="M723.12,447.04c-.91,1.57-1.02,5.07-1,6.99-.33,0-.67-.02-1,0-1.98.12-9.83,1.09-10.97-.02-.21-.2-.15-4.47.13-5.34.88-2.76,9.88-1.51,12.85-1.64Z"/>
  <path class="cls-2" d="M549.29,419.07c-.03,1,.02,2,0,3-.33,0-.67,0-1,0-2.66-.02-5.33.02-7.99,0-6.65-.04-13.34.03-19.99,0v-2.99c5.83-.05,11.69.05,17.53,0,1.43-.02,2.93-.99,3.45-1,1.3,0,5.1.99,7.99,1Z"/>
  <path class="cls-2" d="M255.58,443.04c-.5,3.07-1.7,2.39-4,4-2.33-.01-4.67.02-6.99,0-4.65-.05-9.34.04-13.99,0v-2.99c3.82-.21,7.73.28,11.55,0,1.45-.1,2.86-.98,3.44-1.01,3.3-.17,6.68.08,9.99,0Z"/>
  <path class="cls-4" d="M272.56,291.19c-.45,3.84,1.79,8.31-4,8.01l1.01,1.98c-.67.01-1.33-.02-2,0l-2.49-2.01.49,2.01c-1.33.05-2.67-.08-4,0-.59-3.06,1.62-6.55,2-8.99,2.59,1.47,6.28-.09,8.99-1Z"/>
  <path class="cls-2" d="M389.45,94.38c2.4,2.48,15.93.01,16.98,1-.07,1.09-.74,5.56-1.11,5.87-.72.61-16.13.08-18.87.12,1.22-2.18,9.24-.47,11.98-1.01l-7.98-1.98,8.98-2-10.98-.02c-.56-1.81.91-1.78.99-1.99Z"/>
  <path class="cls-4" d="M195.64,412.07c1.15,5.27-1.41,10.37-2,14.99l-1-2.48c-.05.71.41,2.34-.49,2.5-6.08,1.11-4.33-6.77-3.5-11.01,5.6,0,6.67,1.55,6.01-5.01.51.08.83.99.98,1.01Z"/>
  <rect class="cls-4" x="345.49" y="269.21" width="25.97" height="3"/>
  <path class="cls-4" d="M529.31,474.01c-.56,3.03,1.53,1.92,3.45,2,2.98.12,18.62-.85,19.53,0,2.07,1.96-4,2.8-4.6,2.87-5.11.63-11.14.69-16.38,1.11l.99-2.99h-4.99c-.75-2.13,1.56-2.3,1.99-3Z"/>
  <path class="cls-3" d="M839.01,29.45h-67.93c1.04-1.66,3.79-1,5.48-1.02,18.02-.22,36.05-.31,54.01.07,4.58.1,4.16-1.94,8.45.95Z"/>
  <path class="cls-4" d="M342.5,366.12c.79.2,4.21.99,3.99,1.99-1.23.24-5.68-.32-5.98.01s.54,3.98-1.01,4.99c-.43-1.53,1.38-3.81-1.47-4-2.15-.15-12.09.46-12.52,0-.14-.14-.14-3.84,0-3.99.76-.79,14.67.41,16.99.99Z"/>
  <path class="cls-2" d="M304.53,144.33c3.07.08,3.34-.78,3,2.99-7.65.08-15.34-.09-22.98,0,0-1,0-2,0-3,6.64.12,13.34-.17,19.98,0Z"/>
  <path class="cls-2" d="M497.34,356.13h13.99s-1,11.99-1,11.99v-4c.11-.6-.05-1.35,0-1.99h-5.99c-.05-.79.18-2.83,0-3.01-.2-.2-2.19.1-3,0-1.06-.13-3.48.34-3.94-.08-.39-.35.1-2.15-.05-2.92Z"/>
  <path class="cls-4" d="M602.24,372.11h10.98c-.67,2.78-7.04-1.23-5.98,2.99,2.32-.02,4.67.05,6.99,0-.04.96.21,3.78,0,3.98-.25.23-5.95.96-6.68.97-1.49.02-2.18-.95-2.31-.96l2.99-2.99-13.98-2.02,7.99-1.99Z"/>
  <path class="cls-4" d="M515.33,314.17c2.39,1.55,2.67,4.72,5.99,4.01.39,1.66-1.9.61-2.99,1.99-.33-.03-.67.03-1,0-3.79-.34-8.74-2.73-12.99-2.01.16-.97-.24-3.73,0-3.98.38-.4,9.02.09,10.99,0Z"/>
  <path class="cls-4" d="M440.4,201.28l-1,4c-5.14-.15-10.33.1-15.48,0-2.53-6.28,11.86-3.8,16.48-4Z"/>
  <path class="cls-4" d="M662.18,253.23c3.32.08,6.68-.05,10,0v6c-1.3-.11-2.72.16-4,0-2.86-.37-6.82-1.99-9.99-2.01l4-3.99Z"/>
  <path class="cls-4" d="M865.98,307.17c-.29,1.72-8.5.96-10.99,1-3.98.06-8-.03-11.99,0-.67,0-1.33,0-2,0-12.31.08-24.66-.06-36.96,0,2.68-2.74,54.15.01,61.94-1Z"/>
  <path class="cls-3" d="M374.46,478.01c2.98.15,6.02-.11,9,0v5.01s-13.99,0-13.99,0c-.03-.23-.04-.97,0-1,.61-.34,2.36.78,1.99-.99l-3.99-1,6.99-2.01Z"/>
  <path class="cls-2" d="M235.6,508.98v1c-16.51.22-34.77,1.16-51.5.04-1.12-.07-1.96.39-2.44-1.04h53.95Z"/>
  <path class="cls-4" d="M384.45,393.09c.07,1.33-.03,2.68,0,4-1.79.29-10.62-.41-11-.01-.46.48.99,5.15-.99,6-.11-1.51.64-3.88-1-4,.65-1.94.63-4.13,3-5,3.03.03,6.61-1.77,9.99-1Z"/>
  <path class="cls-4" d="M372.47,404.08c0,.66.05,1.34,0,2-3.46-1.58-1.56,5.99-2,5.99h-13.99c-.14-1.61,2.09-1.21,3.31-1.99.65-.42.55-1.96,1.33-2.04,1.46-.15,6.66,1.38,8.2-.11.33-.32,1.42-6.71,2.13-8.85l.19,4.33.81.67Z"/>
  <path class="cls-4" d="M596.25,129.35c4.78.3,9.69-.2,14.49,0,1.54.07,3.96-.94,3.48,1.48-3.03,3.64-16.83.1-18.97,1.51l1-3Z"/>
  <path class="cls-4" d="M416.42,410.07c-.4,1.58.27,4.2,0,5.99-.68-.02-4.33,1.05-6.99,1,.07-2.32-.1-4.67,0-6.99,2.26.11,5.52-2.25,6.99,0Z"/>
  <path class="cls-2" d="M283.55,211.27c4.95.06,10.12-.47,15,.51-.08,3.96-11.94,2.44-15,2.49s-6-.03-8.99,0c2.11-2.5,8.78,0,10.98-1.01v-.98s-1.99-1.01-1.99-1.01Z"/>
  <path class="cls-4" d="M540.3,458.03c.11-.92-1.03-2.51-1-3l16.98.51c.64,3.97-13.24,2.31-15.98,2.48Z"/>
  <path class="cls-3" d="M420.42,417.07c2.64.14,5.35-.11,8,0-.2,1.55.3,3.59,0,5-.55,2.56-6.42,2.55-6.98,1.99-.25-.25-.02-5.66-1.01-6.98Z"/>
  <path class="cls-3" d="M249.59,409.08c-.09,1.31,0,2.68,0,4-2.48-.14-5.05.21-7.53,0-1.84-.15-2.51.87-2.48-1.51.07-5.27,6.43-3.9,10.01-2.49Z"/>
  <path class="cls-3" d="M298.54,379.1c-1.44-1.56-4.39-.64-5-3,3.49.03,14.9-.69,17,.48,1.52.85.55,2.06-.65,2.38-2.82.74-8.05.03-11.35.14Z"/>
  <path class="cls-4" d="M835.01,91.39c-.19,2.67.84,5.82-1,7.99,0-1,.03-2,0-3-2.7-.95-6.08.91-8,1,.27-2.01.66-4,1-5.99h7.99Z"/>
  <path class="cls-4" d="M504.34,362.12h5.99c-.05.65.11,1.4,0,2-.46,2.53-1.13,8.04-4.49,6.98-2.36-.74-1.36-6.84-1.51-8.98Z"/>
  <path class="cls-2" d="M780.07,409.08v2c0,.65.07,1.35,0,2-1.77-.04-10.86.43-10.99-.5-.1-.74-.12-3.36,0-3.49.38-.4,9.17.27,10.99,0Z"/>
  <path class="cls-3" d="M584.26,143.33h8c1.01,6.64-4.18,4.91-8.99,5,.27-1.97.81-3.66,1-5Z"/>
  <path class="cls-3" d="M781.07,486c2.47.07,4.96-.04,7.44-.01,1.95,4.63-4.94,6.02-8.79,5.03-1.07-.28-.54-1.92-.65-2.02,2.67.47,2.04-.63,2-3Z"/>
  <path class="cls-4" d="M374.46,105.37c-.3,1-.66,2.7-1,4-2.07-1.89-5.86-.9-8.5-.99-1.53-.06-3.95.92-3.47-1.49,3.29-3.03,8.9-.94,12.98-1.51Z"/>
  <path class="cls-4" d="M791.06,328.15c1.99.85.53,5.52.99,6,.93.97,23.3,0,26.98,0v1c-9.64-.14-19.33.11-28.97,0-.03-2.37.62-4.67,1-6.99Z"/>
  <path class="cls-4" d="M567.28,261.22c3.32,0,6.67,0,9.99,0,1.48,6.5-4.2,3.37-9,3.99.06-1.45-.19-2.78-1-4Z"/>
  <path class="cls-3" d="M283.55,147.33v2h-18.98c.38-1.83,1.96-1.87,3.46-2.03,4.62-.52,10.65.1,15.52.04Z"/>
  <path class="cls-2" d="M419.42,401.08c.45.06,1.88-.16,2,0,.24.32.29,7.72,0,8-.33.33-3.11-.31-4,0-2.02-3.07-2.07-7.13,2-7.99Z"/>
  <path class="cls-4" d="M291.55,86.39c-.31,2.33.35,5-.06,7.43-.26,1.58-2.42,6.94-3.94,5.55-.18-.16,1.14-2.26,1.09-3.54-.06-1.41-1.09-2.31-1.09-2.44.09-3.21.05-8.24,4-6.99Z"/>
  <path class="cls-4" d="M347.49,471.01c.2.49-.2,1.51,0,2-4.81-.14-9.68.19-14.49,0-1.35-.05-4.16.83-3.49-1.49.34-1.19,15.47-.16,17.99-.51Z"/>
  <path class="cls-4" d="M678.17,188.29v1c-.11.1.43,1.73-.65,2.02s-11.36.12-11.35-.53c1.21-4.29,8.43-2.14,12-2.49Z"/>
  <path class="cls-4" d="M819.03,146.33c-.1.98.07,2.01,0,3-.33,0-.67,0-1,0-3.32-.03-6.67.03-10,0v-2.99c3.65-.06,7.34.07,10.99,0Z"/>
  <path class="cls-4" d="M824.03,332.15c6.02.31,12.06.01,17.99,1.5,0,.9-16.02.49-17.99.5v-2Z"/>
  <path class="cls-2" d="M643.2,246.23c1.61.03,3.48-.19,5,0,.17.02.6.83,1,1-.56.93-.2,3.25-2,4-1.47-.38-1.73-.76-4-1l-2-4c.67,0,1.33-.01,2,0Z"/>
  <path class="cls-3" d="M554.29,385.1h9c-.08.97.14,2.06,0,3-2.14,1.14-8.64-1.28-8.99-1,.07-.64-.11-1.38,0-2Z"/>
  <path class="cls-3" d="M355.48,338.14c3.65-.09,7.34.05,10.99,0v1.99h-10.99c.08-.65-.08-1.35,0-2Z"/>
  <path class="cls-3" d="M180.65,390.09c-3.11,1.72-9.64,1.64-12.99,0,3.86.09,8.6-.16,12.99,0Z"/>
  <path class="cls-2" d="M828.02,87.39c-.89,4.77,8.89-.77,7.99,4h-8.99c.28-1.65.84-3.07,1-4Z"/>
  <path class="cls-3" d="M407.43,323.16c-5.73.03-12.4.46-17.98,0,5-1.67,12.91-1.68,17.98,0Z"/>
  <path class="cls-4" d="M684.16,187.29c-.58,2.44-2.63,1.57-4,2,.02-.66-.03-1.34,0-2,1.32-.09,2.67.05,4,0Z"/>
  <path class="cls-4" d="M363.47,456.03c-2,0-4,0-5.99,0v-1c1.74.35,4.89-.91,5.99,1Z"/>
  <rect class="cls-4" x="507.34" y="373.12" width=".98" height="5.98"/>
  <path class="cls-4" d="M147.69,89.39c-.99-.07-2.01.06-2.99,0-.43-1.2.96-1.84.99-1.99l2,2Z"/>
  <path class="cls-4" d="M352.49,365.12v1c-1.07.09-2.54.21-3-1,.94-.15,2.03.1,3,0Z"/>
  <path class="cls-4" d="M192.63,430.05c-.35.68-1.7-.58-.98-1.99.35-.68,1.7.58.98,1.99Z"/>
  <path class="cls-4" d="M600.24,379.1l-.51.99-1.49-.99c.67,0,1.33,0,2,0Z"/>
  <path class="cls-4" d="M358.48,461.02l-.99,1-1.01-4.99h1c.23,1.27.58,2.79,1,4Z"/>
  <path class="cls-4" d="M500.34,238.24c.19-1.73.98-1.89,1-2l-1,2Z"/>
  <path class="cls-4" d="M780.07,411.07v-2h1c-.07.85-.03,1.71-1,2Z"/>
  <path class="cls-4" d="M567.28,268.21v-1c0,.1.07.41,0,1Z"/>
  <path class="cls-4" d="M591.25,128.35c.33.04.67-.04,1,0l-.5.98-.5-.98Z"/>
  <path class="cls-4" d="M586.26,128.35c.33.03.67-.04,1,0l-.5.98-.5-.98Z"/>
  <path class="cls-4" d="M299.54,105.37l-1-1c.75.14.85.26,1,1Z"/>
  <path class="cls-4" d="M184.65,416.07h1c-.55.75-.82.03-1,0Z"/>
  <path class="cls-4" d="M339.5,392.09h1l-.57.69c-.6.04-.29-.45-.43-.69Z"/>
  <path class="cls-3" d="M178.66,129.35c2.87-.13,6.26-1.99,8.99-.5-3.16,4.17-6.14,8.68-8.79,13.19-11.15,18.96-22.5,35.77-33.09,54.92-2.54,4.6-5.03,9.97-7.87,15.01-7.88,14.03-15.85,28-24.17,41.77l6.98.5c.72.64-4.96,10.17-5.82,11.66-2.84,4.93-6.91,14.91-13.16,13.31,1.97-4.15,4.35-11.58,6.07-16.23.6-1.61,3.66.28.29-5.65-1-1.76.04-2.71-3.36-2.1,7.22-12.14,13.39-24.99,20.98-36.96,1.81.36,3.67,1.68,6,1-.81-1.03.12-3.83-.05-3.93-.88-.55-3.67,1.14-2.95-2.06,7.41-11.14,13.12-24.71,19.98-35.96.62-1.02,3.34-4.27,5-6.99.55-.91,2.37-2.38,3.41-4.08,7.41-12.16,14.14-24.74,21.57-36.88Z"/>
  <path class="cls-3" d="M55.78,287.19c4.12.19,7.72.94,11.99,1,8.19.12,19.38.93,26.97-1,.56-.14,1.36.09,2,0-5.73,11.08-11.66,21.73-18.98,31.97-1.45,2.03-3.08,3.99-4.38,6.16-.49.82-.48,2.42-.75,2.67-.86.76-4.46-.25-4.86.15-.51.5,1.48,6.1-2.73,3.64-.2-.12-.22-1.69-.76-1.67-.28,0-4.08,1.76-4.49,2.04l21.97-40.95h-36.96s3.71-3.97,3.71-3.97c2.41-.09,4.88-.14,7.28-.03Z"/>
  <path class="cls-4" d="M104.73,255.23c3.4-.61,2.36.33,3.36,2.1,3.37,5.93.31,4.04-.29,5.65-1.72,4.65-4.1,12.09-6.07,16.23-1.5,3.15-3.73,5.54-5,7.99-.63.09-1.44-.14-2,0-5.57-.56-3.49-7.99-4-7.99h-18.98c-.26-1.37.34-2.41,1.67-2.82,4.95-1.56,13.82,1.46,19.27-1.71,3.15-7.02,8.17-12.95,12.03-19.44Z"/>
  <path class="cls-4" d="M153.68,170.31c-1.65,2.73-4.37,5.97-5,6.99-9.48-1.81-19.24.65-28.97-1l2.2-5.77,31.76-.22Z"/>
  <path class="cls-4" d="M54.78,373.11l4.99-1.01c.07-2.18-4.43-.41-5-.98-.93-.94,1.69-13.1,2.55-14.94,1.38-2.94,8.25-4.25,9.44-3.05.6.61-1.71,14.35-2,16.98-.04.33.04.67,0,1l-1,2c-2.99.04-6-.06-8.99,0ZM62.27,371.11v1c.65-.33.65-.67,0-1Z"/>
  <path class="cls-4" d="M67.76,343.14c2.98.07,6-.06,8.99,0-.19,2.01-1.17,8.56-2.99,8.99l-4.99-1.01c2.5-5.2-1.11-4.08-1-7.99-3.32-.08-6.67.06-9.99,0,.53-4.84-2.73-7.77,2-10.99.41-.28,4.21-2.03,4.49-2.04.54-.02.56,1.56.76,1.67,4.21,2.46,2.22-3.14,2.73-3.64.4-.4,4.01.61,4.86-.15.28-.25.26-1.85.75-2.67,1.3-2.17,2.93-4.13,4.38-6.16-2.88,8.81-9.72,14.06-9.99,23.98ZM67.26,334.15v1c.65-.33.65-.67,0-1Z"/>
  <path class="cls-4" d="M128.7,213.27c-.72,3.2,2.07,1.51,2.95,2.06.17.1-.77,2.9.05,3.93-2.33.68-4.19-.63-6-1-.14-.03-.64-.76-1.52-.96-2.39-.55-7.28,1.53-6.46-2.03,4.22-.61,8.44,1.81,10.98-2Z"/>
  <path class="cls-4" d="M224.61,199.28c-.07.76.94,1.65,1,2,.15.86.17,3.18,0,4-.12.59-1.43,1.94-1.74,3.73-1.61,9.37-2.35,18.92-4.26,28.23,4.67.34,9.35-1.99,8.91,4.35-.62,9.03-3.09,4.21-10.03,6.23l-5.88,40.38c-3.31-.06-6.68-.07-9.99,0-2.99.06-6.01-.05-9,0v5c-4.18-.36-6.94.22-6-4.99l15-1c.12-3.1-.28-6.27.12-9.37.58-4.53,3.64-27.82,4.82-29.95.83-1.49,4.5-.29,6.04-.64.01-5.33-4.77-2.7-4.98-2.99-1.8-2.43,4.73-33.53,5.03-38.92,6.7.79,5.44-.7,7.95-4.04.14-.18,2.93.57,2.02-3.02.44.15.82,1.01.98,1.02Z"/>
  <path class="cls-3" d="M136.7,301.18c3.6,0,7.47-.42,10.98.49-4.43,8.82-12.94,18.32-17.04,26.92-.58,1.21-1.29,2.05-.93,3.56,21.64,1.09,43.32-1.69,64.93-.99.83.03,2.32,1.7,3.45,1.61.29-.02,5.27-1.47,5.48-1.66.72-.7-1.06-4.17,1.05-3.93l1.01,7.99c-1.33,2.27-16.37.38-19.98,1,.13,0,1.13-.97,2.42-1.04,4-.21,8.07.21,12.08.04,1.23-.05,3.71.76,3.49-1h-47.95c.67.56,1.89,2.86,2.02,2.99,1.01.98.38-1.87,2.41-2.07,4.32-.44,8.4.96,11.56,1.09-3.23.49-8.48-.81-11.32.16-2.51.86-2.38,4.83-2.66,4.83h-45.96l24.98-39.96Z"/>
  <path class="cls-4" d="M205.63,335.15l-1.01-7.99c-2.11-.23-.33,3.24-1.05,3.93-.21.2-5.19,1.64-5.48,1.66-1.14.09-2.63-1.58-3.45-1.61l1-4.99c-3.49-.74-26.04.97-26.97,0-.14-.14-.19-3.99,0-3.99h27.97l4-28.97c.33,0,.67,0,1,0,1.33-.02,2.67.05,4,0,.66-.02,1.34.04,2,0s1.34.04,2,0c.27-.02.76-.98,1-1,.33-.03.67.03,1,0l-5.99,42.96Z"/>
  <path class="cls-3" d="M169.66,235.24c0,.08.89-.36.92,1.41.02,1.02-1.3,3.21-.92,3.56.16.14,1.92-.15,2.92.6.77.58.91,1.92,1.3,2.17,2.2,1.39,8.36-1.28,10.76,1.25-5.63,12.26-15.1,23.62-21.18,35.75-4.23.53-8.54.09-12.78.21l21.97-35.48c1.11-2.83-7.6-.97-8.98-1.49l5.99-7.98Z"/>
  <path class="cls-4" d="M194.64,202.28c-.84,1.52-1.49,6.19-2.82,8.67-4.58,8.49-9.87,16.74-15.15,24.82-.48,3.14,2.7.23,4.34.42.6.07.41,1.49,1.42,2.01,1.17.61,4.47-1,3.98,3.43-.16,1.49-1.48,1.98-1.77,2.61-2.4-2.53-8.56.14-10.76-1.25-.4-.25-.54-1.59-1.3-2.17-1-.75-2.76-.46-2.92-.6-.38-.35.94-2.54.92-3.56-.03-1.78-.93-1.33-.92-1.41.09-.99.04-1.98.58-2.88,3.99-4.38,14.82-27.82,18.4-29.59,1.83-.9,4.05-.46,6-.49Z"/>
  <path class="cls-3" d="M230.6,160.32c-1.83,12.78-3.55,25.61-5,38.46-.13.5-.54.54-.99.5-.16-.01-.54-.87-.98-1.02.91,3.58-1.88,2.84-2.02,3.02h-6.99c1.22-7.61,1.93-15.35,3-22.98,3.99.86,1.11-6.09,2-7l7.98,3,3-13.99Z"/>
  <path class="cls-2" d="M230.6,160.32l-3,13.99-7.98-3c-.89.91,1.98,7.85-2,7,.71-5.07.99-11.27,2-15.98,1.42-6.65,9.26-16.34,13.49-21.97.67,6.74-1.57,13.46-2.5,19.98Z"/>
  <path class="cls-2" d="M91.74,374.11c26.29.17,52.63-.12,78.92,0l.99,1.99c-26.48,1.65-53.32,1.15-79.92,1,.88-4.23-5.75-.24-7.99-3,2.66.03,5.33-.02,7.99,0Z"/>
  <path class="cls-3" d="M148.68,280.2c-1.77,5.52-6.63,10.62-9.84,15.65-2.02,3.16.42,4.02-5.14,5.33-1.51.35-4.71.7-6.55.96-1.52.22-1.69.21-1.35-1.35.57-2.57,9.03-17.29,10.84-19.15,2.39-2.46,8.49-1.35,12.04-1.44Z"/>
  <path class="cls-2" d="M212.62,288.19c1.63.03,9.65-.36,9.99,0,.14.14.14,3.84,0,3.99-.38.4-8.99-.17-10.99,0-.33.03-.67-.03-1,0l-1,1c-.66.04-1.34-.04-2,0l-.51-.99-1.49.99c-1.33.05-2.67-.02-4,0-.72-3.24,2.29-1.74,4.99-2v-1.99s-3.99-1-3.99-1c3.31-.07,6.68-.06,9.99,0Z"/>
  <path class="cls-3" d="M170.66,374.11c-26.29-.12-52.63.17-78.92,0v-1c24.46,0,48.98-.27,73.44-.02,1.69.02,4.44-.64,5.48,1.02Z"/>
  <path class="cls-4" d="M171.66,336.15c-3.16-.12-7.24-1.52-11.56-1.09-2.03.2-1.4,3.05-2.41,2.07-.13-.13-1.35-2.42-2.02-2.99h47.95c.22,1.76-2.26.95-3.49,1-4.01.17-8.08-.25-12.08-.04-1.29.07-2.29,1.04-2.42,1.04-2.65.08-5.34.02-7.99,0-.14-1.5-2.86-1.5-3,0-1-.02-2,.04-3,0Z"/>
  <path class="cls-2" d="M225.61,201.28c2.16.36,13.51-.5,13.99,0,.12.13.11,2.74,0,3.49-.16,1.13-12.09.2-13.99.5.17-.81.15-3.14,0-4Z"/>
  <path class="cls-3" d="M218.62,88.39c5.98.03,12-.02,17.99,0v2.99c-5.63.24-11.37-.32-16.99,0-1.09-1.38-3.38-.33-2.99-1.99l1.99-1.01Z"/>
  <path class="cls-2" d="M215.62,59.42h4.99c.83,3.34-2.88,5.17-3.99,6.99h-4.99c-.36-3.1,2.89-5.27,3.99-6.99Z"/>
  <path class="cls-2" d="M186.65,478.01c3.81.11,7.68-.16,11.5,0,1.54.06,3.95-.94,3.48,1.48-4.2,3.18-10.99.82-15.97,1.51.18-1.14.88-2.22,1-3Z"/>
  <path class="cls-4" d="M91.74,373.11v1c-2.66-.02-5.33.03-7.99,0-4.82-.06-11.01.59-15.54.05-1.15-.14-1.88.42-2.44-1.04h25.97Z"/>
  <path class="cls-2" d="M83.75,377.11c-5.32-.05-10.67.08-15.98,0,4.26-1.69,11.93-1.66,15.98,0Z"/>
  <path class="cls-3" d="M177.66,336.15c-1,0-2,.02-3,0,.14-1.5,2.86-1.5,3,0Z"/>
  <path class="cls-2" d="M65.77,377.11c-.33,0-.67,0-1,0l.5-.98.5.98Z"/>
  <path class="cls-2" d="M195.64,384.1c.33,0,.67,0,1,0l-.5.98-.5-.98Z"/>
  <path class="cls-4" d="M746.1,284.2l-1-.5c1.67,7.31-4.64,3.78-9.99,4.49l6-44.96h-8.49c-3.27-6.41,8.47-2.95,9.48-4l7.44-46.01c1.14-1.68,5.55-.75,7.56-.94-1.1,2.56.97,6.76.99,8,.16,8.79-3.43,26.51-5,35.96-.13.8.25,2.77,0,2.98-.67.56-9.56-.05-10.97,2.53-.48,2.43,1.95,1.41,3.49,1.48s5.4.33,6.49,0c-2.19,13.08-3.37,26.3-5.04,39.46-.22,1.7-.95,1.41-.96,1.5Z"/>
  <path class="cls-2" d="M733.11,305.18c3.65-.04,7.34.02,10.99,0,16.97-.07,33.98.05,50.95,0-.27,1.79-.91,2.43-1,3l-49.95-1c-1.6.39-1.59,1.2-1.94,2.55-2.22,8.54-2.41,19.6-3.06,28.42l-47.95-1v-1c.33,0,.67,0,1,0h4c10.66-.06,21.39.41,32.04-.43,1.76-1.27,3.94-24.64,3.93-28.54h-13.99v-1.99c4.99-.05,10.01.05,14.99,0Z"/>
  <path class="cls-3" d="M668.18,301.18c-.35,3.88-3.89,5.91-5.44,9.09-.67,1.37-.44,3.74-.55,3.9-.11.15-1.44-.13-2,0,1.5,3.63,6.22,1.02,8.99,2.48l-9.98,16.48,30.97,3.01c-14.3.01-28.65,0-42.95,0-1.23-1.11,10.06-17.01,10.98-19.48-.76-1.37-4.83.82-3.98-1.97.21-.7,6.92-12.04,7.46-12.52,1.88-1.67,4.25-.85,6.51-.99Z"/>
  <path class="cls-2" d="M739.11,188.29c-6.6,11.51-12.58,23.41-19.97,34.47l10.98,1.5c.45,1.75-.25,1.4-.99,1.99-3.63.55-10.45-1.26-12.99,1-1.67,1.49-4.08,6.21-5.01,8.48.61,3.86,5.2-2.79,4.02,3.5-3.58-.65-6.73.58-10,1-.16-2.2.85-3.84,1.82-5.68,3.42-6.46,25.57-43.69,29.15-46.27.73-.53,1.57-.88,2.48-1l.52,1Z"/>
  <path class="cls-3" d="M705.14,250.23c-10.07,16.14-21.69,31.87-29.97,48.95-.27.56-1.08,1.09-1,2-.33,0-.67,0-1,0-1.33.03-2.67-.05-4,0l28.97-47.95c2.38-1.13,3.46-4.43,6.41-3.96l.58.97Z"/>
  <path class="cls-2" d="M762.09,169.31c-2.96,1.59-6.66,1-9.99,1-.67,0-1.33,0-2,0,1.81-3.3,11.7-24.05,13.01-24.97.79-.56,2.57.5,2.8,1.59.38,1.79-3.24,18.53-3.82,22.38Z"/>
  <path class="cls-2" d="M651.19,372.11c1.6-.19,3.37.11,5,0-.17.97.24,3.73,0,3.99-.36.38-8.64-.13-10.53,0-2.85.19-1.04,2.47-1.47,4-2.41-.06-6.42.5-8.34,0-.83-.22-.56-2.2-1.13-2.01-.63.21-1.5,1.44-2.47,1.59-5.24.78-4.96-2.79-6.71-3.4-1.11-.39-2.56.08-3.61-.22-.89-.26-.7-1.94-1.29-1.97-1.15-.06-4.03.97-6.42,1.02.02-.43-.13-1.9,0-2,1.34-1.01,28.77.33,33.59.07,1.85-.1,2.94-1.02,3.38-1.07Z"/>
  <path class="cls-3" d="M762.09,289.19c1.99.07,4.01-.06,6,0v8c-6.98.05-14.01-.07-20.99,0-2.79-.07-1.28-7.68-.99-7.98.55-.58,13.6-.09,15.97,0Z"/>
  <path class="cls-4" d="M760.09,181.3l-.98-.49c.1,6.73-2.29,5.72-8.02,5.49l1-15.99c3.33,0,7.03.59,9.99-1-.58,3.86-1.56,8.13-2,11.99Z"/>
  <path class="cls-2" d="M708.14,345.14c.21,3.18-2.18,2.86-4.44,3.05-5.65.47-36.85.67-40.27-.79-1.44-.61-1.49-.26-1.24-2.26h45.96Z"/>
  <path class="cls-4" d="M749.1,171.31c-3.17,5.76-6.72,11.28-9.99,16.98l-.52-1c-.9.12-1.75.48-2.48,1l-1.93-3.41c2.36-1.38,7.38-12.98,8.08-13.41,1.27-.78,5.05.17,6.84-.16Z"/>
  <path class="cls-4" d="M704.14,240.24c-1.46,3.83,2.37,7.8,1,9.99l-.58-.97c-2.96-.47-4.03,2.83-6.41,3.96l-5.98-1.48c2.23-1.51,5.86-10.49,7.19-11.3,1.19-.72,3.38.01,4.78-.21Z"/>
  <path class="cls-3" d="M781.07,186.29c1.91-.32.56,5.41-.15,5.85-1.01.63-14,.08-16.84.14,1.85-2.43,8.03-.08,9.99-1.01v-.99s-15.98,0-15.98,0c.49-.85.88-2.83,1.67-3.04,5.45-1.47,15.81,1.98,21.3-.96Z"/>
  <path class="cls-3" d="M744.1,307.17c-1.32,4.57-2.67,29.93-4.94,31.53l-47.4.46-.61-2.02,47.95,1c.65-8.83.84-19.88,3.06-28.42.35-1.34.33-2.16,1.94-2.55Z"/>
  <path class="cls-3" d="M745.1,297.18l-1,7.99c-3.65.02-7.34-.04-10.99,0,.68-1.43.73-7.69,1.01-7.98.38-.4,9.23.02,10.98,0Z"/>
  <path class="cls-2" d="M598.25,337.15c4.75.28,9.78-.4,14.5,0,6.68.56.42,1.95-.44,2.57-.81.59-.87,2.19-1.78,2.44-2.61.7-9.46.12-12.28-1.02.18-.74-1.01-1.34,0-4Z"/>
  <path class="cls-4" d="M673.17,301.18c-2.4,5.14-3.38,14.64-10.99,12.99.12-.16-.11-2.53.55-3.9,1.55-3.18,5.09-5.2,5.44-9.09.33-.02.67.01,1,0,1.33-.05,2.67.03,4,0Z"/>
  <path class="cls-2" d="M753.09,236.24h6.43c2.37,6.26-2.5,4.23-5.76,5.21-1.23.37-1.55,1.75-1.67,1.79-1.1.33-4.95.07-6.49,0s-3.96.94-3.49-1.48c1.41-2.57,10.31-1.97,10.97-2.53.25-.21-.13-2.18,0-2.98Z"/>
  <path class="cls-2" d="M774.07,451.03c-.14.95.13,2.04,0,3-3.15-.12-6.37.17-9.52,0-2.06-.11-1.81-.58-1.47-2.5.2-1.14,9.26-.21,11-.5Z"/>
  <path class="cls-2" d="M801.05,266.21c2.99.54,8.88-1.66,7.99,2-.06.32.06.68,0,1h-8.99c.22-1.48.94-2.61,1-3Z"/>
  <path class="cls-4" d="M773.07,458.03c2.81,3.73-.89,8.77,0,12.98-1.69.26-.93-1.88-.99-2.99-.08-1.46-.2-3.64,0-5,.47-.11.95-.54,1-1,.14-1.29-.18-2.74,0-4Z"/>
  <path class="cls-4" d="M762.09,288.19c2.32.07,4.68-.05,7,0-.38,2.82,1.07,6.95-1,9v-8c-1.98-.05-4,.08-5.99,0v-1Z"/>
  <path class="cls-3" d="M762.09,192.29c-.83.05-2.63-.2-3,0,.07-1.54,2.93-1.54,3,0Z"/>
  <path class="cls-4" d="M758.09,196.28l1-3c-.28,1.51-.97,2.84-1,3Z"/>
  <path class="cls-3" d="M772.08,463.02c.07-.47.52-.89,1-1-.05.46-.53.89-1,1Z"/>
  <path class="cls-2" d="M403.44,289.19c.6-.24,1.8-1.27,1.99-1l-.99,6.98,11.98.02-1.67,2.82c-10.1-.88-22.1,1.42-31.9.23-1.52-.18-2.18-1.02-2.39-1.06l-5.99-1.99,11.98-1.02-1-3.98c5.92-.54,12.47,1.19,17.98-1.01Z"/>
  <path class="cls-2" d="M414.43,369.11c-.46,3.6-.55,7.4-1,10.99-.15,1.2-.75,3-1,5-6.79-.03-13.66,1.87-20.5,1-1.46-.19-3.1-.76-1.48-2h12.99c.31-9.67-1.65-17.33,10.98-14.99Z"/>
  <path class="cls-3" d="M545.3,389.09c-.32,2.26-1.4,4.5-1.01,6.99-.8.84-11.17-1.33-12.98,1.01-1.81.31-.26-6.75,0-7,.46-.43,3.11,1.21,4.37,1.07.65-.08.52-1.86,1.29-2.05,2.05-.5,5.85.07,8.32-.01Z"/>
  <path class="cls-2" d="M528.31,455.03l.99,2.99c-3.16.21-6.41-.27-9.57-.04-1.32.1-2.18,1.01-2.42,1.04-1.59.19-3.37-.13-5-.01.81-1.03.69-3.79,1.61-4.05,2.59-.75,10.7.29,14.38.07Z"/>
  <path class="cls-3" d="M507.33,397.09h-14.99c.52-1.59,12.96-1.65,14.99,0Z"/>
  <path class="cls-2" d="M371.47,297.18c-1.72,2-5.49.68-7.99,1,3.46-.96,4.4-.89,7.99-1Z"/>
  <path class="cls-3" d="M567.28,217.26c1.91,1.72,1.67,4.83-1,4,.1-1.28.88-2.7,1-4Z"/>
  <path class="cls-4" d="M545.3,202.28c.32-.87-.09-1.06,1-2l-1,2Z"/>
  <path class="cls-2" d="M448.39,31.44h26.98s0,2.99,0,2.99c-9.3,1.11-18.65.68-27.98,1,.66-3.03-1.35-1.36-2.99-2.49.91-1.79,3.05-1.06,3.99-1.5Z"/>
  <rect class="cls-3" x="451.4" y="143.34" width=".98" height="3.99"/>
  <path class="cls-4" d="M174.66,89.39c-1,0-2,0-3,0,.14-1.5,2.86-1.5,3,0Z"/>
  <path class="cls-3" d="M67.26,334.15c.65.33.65.67,0,1v-1Z"/>
  <path class="cls-3" d="M202.63,288.19l4,1v1.99c-2.71.26-5.72-1.23-5,2-.33,0-.67,0-1,0-1,0-2,.04-3,0l-.5-.98-.5.98c-.99-.05-2.01.09-3,0v-5c2.98-.04,6,.07,8.99,0Z"/>
  <path class="cls-4" d="M197.64,293.19c-.33-.01-.67.02-1,0l.5-.98.5.98Z"/>
  <path class="cls-3" d="M207.63,293.19c-.66.04-1.33-.02-2,0l1.49-.99.51.99Z"/>
  <path class="cls-3" d="M209.63,293.19l1-1c-.24.02-.73.98-1,1Z"/>
  <path class="cls-4" d="M721.13,316.17c.14.14.2,4,0,4h-23.98c-.2,0-.2-4,0-4,3.32,0,23.14-.86,23.98,0Z"/>
  <path class="cls-4" d="M675.17,299.18c1.55-2.37,11.72-.22,8.99,1.99-3.32.06-6.67-.07-9.99,0-.08-.91.73-1.44,1-2Z"/>
  <path class="cls-4" d="M729.12,226.25c-2.82,2.25-9.2.45-12.99,1,2.53-2.26,9.36-.44,12.99-1Z"/>
  <path class="cls-3" d="M696.15,336.15h-4c1.06,0,2.91,0,4,0Z"/>
</svg>